<?xml version="1.0" standalone="no"?>
<!DOCTYPE svg PUBLIC "-//W3C//DTD SVG 1.1//EN" "http://www.w3.org/Graphics/SVG/1.1/DTD/svg11.dtd" >
<svg xmlns="http://www.w3.org/2000/svg">
<metadata>Generated by IcoMoon</metadata>
<defs>
<font id="icomoon" horiz-adv-x="1024">
<font-face units-per-em="1024" ascent="960" descent="-64" />
<missing-glyph horiz-adv-x="1024" />
<glyph unicode="&#x20;" horiz-adv-x="512" d="" />
<glyph unicode="&#xe900;" glyph-name="asterisk" d="M512 938.667c35.346 0 64-28.654 64-64v0-337.152l291.968 168.576c9.267 5.523 20.436 8.788 32.368 8.788 35.346 0 64-28.654 64-64 0-23.713-12.897-44.414-32.058-55.472l-0.309-0.165-291.968-168.576 291.968-168.576c19.471-11.222 32.368-31.923 32.368-55.636 0-35.346-28.654-64-64-64-11.932 0-23.101 3.265-32.662 8.951l0.295-0.162-291.968 168.576v-337.152c0-35.346-28.654-64-64-64s-64 28.654-64 64v0 337.152l-291.968-168.576c-9.267-5.523-20.436-8.788-32.368-8.788-35.346 0-64 28.654-64 64 0 23.713 12.897 44.414 32.058 55.472l0.309 0.165 291.968 168.576-291.968 168.576c-19.058 11.319-31.632 31.797-31.632 55.212 0 35.346 28.654 64 64 64 11.633 0 22.541-3.104 31.942-8.528l-0.309 0.165 291.968-168.576v337.152c0 35.346 28.654 64 64 64v0z" />
<glyph unicode="&#xe901;" glyph-name="award" d="M618.816 883.371l-106.816 55.296-106.816-55.296-118.912-18.048-53.888-107.52-85.568-84.48 19.584-118.656-19.584-118.656 85.568-84.48 53.888-107.52 118.912-18.048 106.816-55.296 106.816 55.296 118.912 18.048 53.888 107.52 85.568 84.48-19.584 118.656 19.584 118.656-85.568 84.48-53.888 107.52zM695.36 807.019l43.776-87.36 69.504-68.608-15.872-96.384 15.872-96.384-69.504-68.608-43.776-87.36-96.64-14.656-86.72-44.928-86.72 44.928-96.64 14.656-43.776 87.36-69.504 68.608 15.936 96.384-16 96.384 69.568 68.608 43.776 87.36 96.64 14.656 86.72 44.928 86.784-44.928zM256 183.851v-269.184l256 64 256-64v269.184l-129.152-19.584-126.848-65.664-126.848 65.664z" />
<glyph unicode="&#xe902;" glyph-name="award-fill" d="M512 938.667l106.816-55.296 118.912-18.048 53.888-107.52 85.568-84.48-19.584-118.656 19.584-118.656-85.568-84.48-53.888-107.52-118.912-18.048-106.816-55.296-106.816 55.296-118.912 18.048-53.888 107.52-85.568 84.48 19.584 118.656-19.584 118.656 85.568 84.48 53.888 107.52 118.912 18.048zM256 183.851v-269.184l256 64 256-64v269.184l-129.152-19.584-126.848-65.664-126.848 65.664z" />
<glyph unicode="&#xe903;" glyph-name="box" d="M523.904 867.435c-3.524 1.453-7.616 2.297-11.904 2.297s-8.38-0.844-12.117-2.374l0.213 0.077-381.952-152.768 393.856-157.504 393.856 157.504zM960 667.371l-416-166.4v-507.008l416 166.4v506.944zM480-6.101v507.136l-416 166.336v-507.072zM476.352 926.891c10.554 4.343 22.807 6.864 35.648 6.864s25.093-2.521 36.289-7.096l-0.641 0.232 456.256-182.528c11.876-4.853 20.093-16.314 20.096-29.696v0-554.368c-0.018-26.777-16.477-49.706-39.828-59.238l-0.428-0.154-459.84-183.936c-3.524-1.453-7.616-2.297-11.904-2.297s-8.38 0.844-12.117 2.374l0.213-0.077-459.776 183.936c-23.805 9.667-40.291 32.601-40.32 59.388v554.372c0.003 13.382 8.22 24.843 19.883 29.619l0.213 0.077z" />
<glyph unicode="&#xe904;" glyph-name="box-fill" d="M993.792 748.395c17.841-7.26 30.192-24.457 30.208-44.542v-554.37c-0.016-20.087-12.367-37.284-29.887-44.428l-0.321-0.116-464-185.6c-5.277-2.171-11.403-3.432-17.824-3.432s-12.547 1.261-18.144 3.548l0.32-0.116-464 185.6c-17.814 7.279-30.139 24.472-30.144 44.543v554.369c0.005 20.072 12.33 37.265 29.824 44.428l0.32 0.116 464 185.6c5.286 2.179 11.423 3.445 17.856 3.445s12.57-1.265 18.176-3.561l-0.32 0.116 17.536-7.040 0.256-0.064zM905.856 714.667l-393.856-157.568-393.856 157.568-54.144-21.696v-25.6l416-166.4v-507.008l32-12.8 32 12.8v506.944l416 166.4v25.6l-54.144 21.696z" />
<glyph unicode="&#xe905;" glyph-name="briefcase" d="M416 874.667c-53.019 0-96-42.981-96-96v0-32h-224c-53.019 0-96-42.981-96-96v0-512c0-53.019 42.981-96 96-96v0h832c53.019 0 96 42.981 96 96v0 512c0 53.019-42.981 96-96 96v0h-224v32c0 53.019-42.981 96-96 96v0zM416 810.667h192c17.673 0 32-14.327 32-32v0-32h-256v32c0 17.673 14.327 32 32 32v0zM536.704 368.171l423.296 112.832v-342.336c0-17.673-14.327-32-32-32v0h-832c-17.673 0-32 14.327-32 32v0 342.4l423.296-112.896c7.41-2.053 15.919-3.233 24.704-3.233s17.294 1.18 25.377 3.39l-0.673-0.157zM96 682.667h832c17.673 0 32-14.327 32-32v0-103.424l-439.744-117.248c-2.476-0.688-5.32-1.083-8.256-1.083s-5.78 0.395-8.481 1.136l0.225-0.052-439.744 117.248v103.424c0 17.673 14.327 32 32 32v0z" />
<glyph unicode="&#xe906;" glyph-name="briefcase-fill" d="M416 874.667c-53.019 0-96-42.981-96-96v0-32h-224c-53.019 0-96-42.981-96-96v0-88.576l487.296-129.92c7.41-2.053 15.919-3.233 24.704-3.233s17.294 1.18 25.377 3.39l-0.673-0.157 487.296 129.92v88.576c0 53.019-42.981 96-96 96v0h-224v32c0 53.019-42.981 96-96 96v0zM416 810.667h192c17.673 0 32-14.327 32-32v0-32h-256v32c0 17.673 14.327 32 32 32v0zM0 138.667c0-53.019 42.981-96 96-96v0h832c53.019 0 96 42.981 96 96v0 361.6l-503.744-134.208c-2.476-0.688-5.32-1.083-8.256-1.083s-5.78 0.395-8.481 1.136l0.225-0.052-503.744 134.208z" />
<glyph unicode="&#xe907;" glyph-name="bullseye" d="M512-21.333c-247.424 0-448 200.576-448 448s200.576 448 448 448v0c247.424 0 448-200.576 448-448s-200.576-448-448-448v0zM512-85.333c282.77 0 512 229.23 512 512s-229.23 512-512 512v0c-282.77 0-512-229.23-512-512s229.23-512 512-512v0zM512 106.667c-176.731 0-320 143.269-320 320s143.269 320 320 320v0c176.731 0 320-143.269 320-320s-143.269-320-320-320v0zM512 42.667c212.077 0 384 171.923 384 384s-171.923 384-384 384v0c-212.077 0-384-171.923-384-384s171.923-384 384-384v0zM512 234.667c-106.039 0-192 85.961-192 192s85.961 192 192 192v0c106.039 0 192-85.961 192-192s-85.961-192-192-192v0zM512 170.667c141.385 0 256 114.615 256 256s-114.615 256-256 256v0c-141.385 0-256-114.615-256-256s114.615-256 256-256v0zM608 426.667c0-53.019-42.981-96-96-96s-96 42.981-96 96v0c0 53.019 42.981 96 96 96s96-42.981 96-96v0z" />
<glyph unicode="&#xe908;" glyph-name="buildings" d="M944.832 933.867c9.159-5.733 15.162-15.765 15.168-27.199v-960.001c0-17.673-14.327-32-32-32v0h-192c-17.673 0-32 14.327-32 32v0 96h-64v-96c0-17.673-14.327-32-32-32v0h-576c-17.673 0-32 14.327-32 32v0 352c0.011 14.046 9.070 25.973 21.663 30.269l0.225 0.067 362.112 120.704v200.96c0 12.446 7.106 23.233 17.483 28.524l0.181 0.084 512 256c4.172 2.134 9.102 3.384 14.323 3.384 6.237 0 12.058-1.784 16.979-4.871l-0.134 0.078zM384 382.251l-320-106.624v-296.96h320zM448-21.333h128v96c0 17.673 14.327 32 32 32v0h128c17.673 0 32-14.327 32-32v0-96h128v876.224l-448-224zM128 234.667h64v-64h-64zM256 234.667h64v-64h-64zM128 106.667h64v-64h-64zM256 106.667h64v-64h-64zM512 362.667h64v-64h-64zM640 362.667h64v-64h-64zM512 234.667h64v-64h-64zM640 234.667h64v-64h-64zM768 362.667h64v-64h-64zM768 234.667h64v-64h-64zM512 490.667h64v-64h-64zM640 490.667h64v-64h-64zM768 490.667h64v-64h-64zM512 618.667h64v-64h-64zM640 618.667h64v-64h-64zM768 618.667h64v-64h-64zM768 746.667h64v-64h-64z" />
<glyph unicode="&#xe909;" glyph-name="check-circle-fill" d="M1024 426.667c0-282.77-229.23-512-512-512s-512 229.23-512 512v0c0 282.77 229.23 512 512 512s512-229.23 512-512v0zM769.92 620.587c-8.68 8.651-20.656 14-33.882 14-13.913 0-26.443-5.919-35.21-15.377l-0.028-0.031-222.272-283.2-133.952 134.016c-8.549 7.982-20.063 12.883-32.723 12.883-26.51 0-48-21.49-48-48 0-12.659 4.901-24.174 12.908-32.751l-0.026 0.028 169.344-169.408c8.683-8.668 20.671-14.028 33.91-14.028 13.865 0 26.357 5.879 35.119 15.279l0.026 0.029 255.488 319.36c8.295 8.615 13.404 20.347 13.404 33.274 0 13.248-5.367 25.242-14.045 33.927v0z" />
<glyph unicode="&#xe90a;" glyph-name="check-circle" d="M512-21.333c-247.424 0-448 200.576-448 448s200.576 448 448 448v0c247.424 0 448-200.576 448-448s-200.576-448-448-448v0zM512-85.333c282.77 0 512 229.23 512 512s-229.23 512-512 512v0c-282.77 0-512-229.23-512-512s229.23-512 512-512v0zM702.080 620.587l-1.28-1.408-222.272-283.2-133.952 134.016c-8.549 7.982-20.063 12.883-32.723 12.883-26.51 0-48-21.49-48-48 0-12.659 4.901-24.174 12.908-32.751l-0.026 0.028 169.344-169.408c8.683-8.668 20.671-14.028 33.91-14.028 13.865 0 26.357 5.879 35.119 15.279l0.026 0.029 255.488 319.36c8.201 8.596 13.248 20.264 13.248 33.11 0 26.51-21.49 48-48 48-13.181 0-25.121-5.313-33.795-13.914l0.003 0.003z" />
<glyph unicode="&#xe90b;" glyph-name="circle-fill" d="M1024 426.667c0-282.77-229.23-512-512-512s-512 229.23-512 512c0 282.77 229.23 512 512 512s512-229.23 512-512z" />
<glyph unicode="&#xe90c;" glyph-name="circle" d="M512-21.333c-247.424 0-448 200.576-448 448s200.576 448 448 448v0c247.424 0 448-200.576 448-448s-200.576-448-448-448v0zM512-85.333c282.77 0 512 229.23 512 512s-229.23 512-512 512v0c-282.77 0-512-229.23-512-512s229.23-512 512-512v0z" />
<glyph unicode="&#xe90d;" glyph-name="circle-half" d="M512-21.333c247.424 0 448 200.576 448 448s-200.576 448-448 448v0zM512-85.333c-282.77 0-512 229.23-512 512s229.23 512 512 512v0c282.77 0 512-229.23 512-512s-229.23-512-512-512v0z" />
<glyph unicode="&#xe90e;" glyph-name="cloud-arrow-up-fill" d="M512 810.667c-88.152-0.285-168.666-32.754-230.46-86.264l0.444 0.376c-49.024-42.24-84.544-97.28-93.696-152.512-107.264-23.68-188.288-117.12-188.288-229.952 0-131.072 109.312-235.648 241.984-235.648h569.984c116.16 0 212.032 91.52 212.032 206.528 0 104.704-79.488 190.016-181.376 204.416-15.552 165.12-158.464 293.056-330.624 293.056zM662.656 481.323c5.798-5.798 9.384-13.808 9.384-22.656 0-17.695-14.345-32.040-32.040-32.040-8.848 0-16.858 3.586-22.656 9.384v0l-73.344 73.408v-242.752c0-17.673-14.327-32-32-32s-32 14.327-32 32v0 242.752l-73.344-73.408c-5.798-5.798-13.808-9.384-22.656-9.384-17.695 0-32.040 14.345-32.040 32.040 0 8.848 3.586 16.858 9.384 22.656v0l128 128c5.794 5.808 13.805 9.401 22.656 9.401s16.862-3.593 22.655-9.401l0.001-0.001z" />
<glyph unicode="&#xe90f;" glyph-name="cloud-arrow-up" d="M489.344 609.323c5.794 5.808 13.805 9.401 22.656 9.401s16.862-3.593 22.655-9.401l128.001-128.001c5.798-5.798 9.384-13.808 9.384-22.656 0-17.695-14.345-32.040-32.040-32.040-8.848 0-16.858 3.586-22.656 9.384v0l-73.344 73.408v-242.752c0-17.673-14.327-32-32-32s-32 14.327-32 32v0 242.752l-73.344-73.408c-5.798-5.798-13.808-9.384-22.656-9.384-17.695 0-32.040 14.345-32.040 32.040 0 8.848 3.586 16.858 9.384 22.656v0zM281.984 724.779c61.35 53.134 141.864 85.603 229.955 85.888h0.061c172.16 0 315.072-128 330.624-293.056 101.888-14.4 181.376-99.712 181.376-204.416 0-114.944-95.872-206.528-212.032-206.528h-569.984c-132.672 0-241.984 104.576-241.984 235.648 0 112.832 81.024 206.272 188.288 229.952 9.152 55.232 44.672 110.272 93.696 152.512zM323.776 676.331c-48.448-41.792-73.792-92.16-73.792-131.584v-28.672l-28.48-3.136c-89.408-9.792-157.504-83.2-157.504-170.624 0-93.888 78.72-171.648 177.984-171.648h569.984c82.752 0 148.032 64.768 148.032 142.528 0 77.824-65.28 142.592-148.032 142.592h-32v32c0.064 142.080-118.976 258.88-267.968 258.88-72.146-0.297-138.022-26.901-188.587-70.708l0.363 0.308z" />
<glyph unicode="&#xe910;" glyph-name="cloud-arrow-down" d="M489.344 244.011c5.794-5.808 13.805-9.401 22.656-9.401s16.862 3.593 22.655 9.401l128.001 128.001c5.798 5.798 9.384 13.808 9.384 22.656 0 17.695-14.345 32.040-32.040 32.040-8.848 0-16.858-3.586-22.656-9.384v0l-73.344-73.408v242.752c0 17.673-14.327 32-32 32s-32-14.327-32-32v0-242.752l-73.344 73.408c-5.798 5.798-13.808 9.384-22.656 9.384-17.695 0-32.040-14.345-32.040-32.040 0-8.848 3.586-16.858 9.384-22.656v0zM281.984 724.779c61.35 53.134 141.864 85.603 229.955 85.888h0.061c172.16 0 315.072-128 330.624-293.056 101.888-14.4 181.376-99.712 181.376-204.416 0-114.944-95.872-206.528-212.032-206.528h-569.984c-132.672 0-241.984 104.576-241.984 235.648 0 112.832 81.024 206.272 188.288 229.952 9.152 55.232 44.672 110.272 93.696 152.512zM323.776 676.331c-48.448-41.792-73.792-92.16-73.792-131.584v-28.672l-28.48-3.136c-89.408-9.792-157.504-83.2-157.504-170.624 0-93.888 78.72-171.648 177.984-171.648h569.984c82.752 0 148.032 64.768 148.032 142.528 0 77.824-65.28 142.592-148.032 142.592h-32v32c0.064 142.080-118.976 258.88-267.968 258.88-72.146-0.297-138.022-26.901-188.587-70.708l0.363 0.308z" />
<glyph unicode="&#xe911;" glyph-name="cloud-arrow-down-fill" d="M512 810.667c-88.152-0.285-168.666-32.754-230.46-86.264l0.444 0.376c-49.024-42.24-84.544-97.28-93.696-152.512-107.264-23.68-188.288-117.12-188.288-229.952 0-131.072 109.312-235.648 241.984-235.648h569.984c116.16 0 212.032 91.52 212.032 206.528 0 104.704-79.488 190.016-181.376 204.416-15.552 165.12-158.464 293.056-330.624 293.056zM662.656 372.011l-128-128c-5.794-5.808-13.805-9.401-22.656-9.401s-16.862 3.593-22.655 9.401l-128.001 128.001c-5.798 5.798-9.384 13.808-9.384 22.656 0 17.695 14.345 32.040 32.040 32.040 8.848 0 16.858-3.586 22.656-9.384v0l73.344-73.408v242.752c0 17.673 14.327 32 32 32s32-14.327 32-32v0-242.752l73.344 73.408c5.798 5.798 13.808 9.384 22.656 9.384 17.695 0 32.040-14.345 32.040-32.040 0-8.848-3.586-16.858-9.384-22.656v0z" />
<glyph unicode="&#xe912;" glyph-name="dash" d="M256 426.667c0 17.673 14.327 32 32 32v0h448c17.673 0 32-14.327 32-32s-14.327-32-32-32v0h-448c-17.673 0-32 14.327-32 32v0z" />
<glyph unicode="&#xe913;" glyph-name="dash-lg" d="M128 426.667c0 17.673 14.327 32 32 32v0h704c17.673 0 32-14.327 32-32s-14.327-32-32-32v0h-704c-17.673 0-32 14.327-32 32v0z" />
<glyph unicode="&#xe914;" glyph-name="eye-fill" d="M672 426.667c0-88.366-71.634-160-160-160s-160 71.634-160 160v0c0 88.366 71.634 160 160 160s160-71.634 160-160v0zM0 426.667s192 352 512 352 512-352 512-352-192-352-512-352-512 352-512 352zM512 202.667c123.712 0 224 100.288 224 224s-100.288 224-224 224v0c-123.712 0-224-100.288-224-224s100.288-224 224-224v0z" />
<glyph unicode="&#xe915;" glyph-name="eye" d="M1024 426.667s-192 352-512 352-512-352-512-352 192-352 512-352 512 352 512 352zM75.072 426.667c32.453 49.054 67.439 91.827 106.262 130.774l-0.022-0.022c82.368 82.496 195.008 157.248 330.688 157.248s248.256-74.752 330.752-157.248c38.801-38.925 73.787-81.698 104.323-127.682l1.917-3.070q-5.504-8.32-12.48-18.432c-21.44-30.72-53.12-71.68-93.76-112.32-82.496-82.496-195.136-157.248-330.752-157.248s-248.256 74.752-330.752 157.248c-38.801 38.925-73.787 81.698-104.323 127.682l-1.917 3.070zM512 586.667c-88.366 0-160-71.634-160-160s71.634-160 160-160v0c88.366 0 160 71.634 160 160s-71.634 160-160 160v0zM288 426.667c0 123.712 100.288 224 224 224s224-100.288 224-224v0c0-123.712-100.288-224-224-224s-224 100.288-224 224v0z" />
<glyph unicode="&#xe916;" glyph-name="globe" d="M0 426.667c0 282.77 229.23 512 512 512s512-229.23 512-512v0c0-282.77-229.23-512-512-512s-512 229.23-512 512v0zM480 869.739c-42.88-13.056-85.44-52.48-120.768-118.72-10.269-18.889-20.371-41.444-28.824-64.788l-1.128-3.564h150.72zM261.76 682.667c12.095 38.138 25.979 70.733 42.521 101.695l-1.561-3.199c12.283 22.858 24.946 42.389 39.003 60.798l-0.795-1.086c-80.852-34.118-147.528-88.449-195.656-156.783l-0.952-1.425zM224.512 458.667c1.92 56.128 8.832 109.952 19.968 160h-137.344c-22.658-46.698-37.689-101.113-41.898-158.534l-0.086-1.466zM310.208 618.667c-11.881-47.349-19.656-102.259-21.595-158.65l-0.037-1.35h191.424v160zM544 618.667v-160h191.36c-1.952 57.728-9.705 112.642-22.71 165.489l1.142-5.489zM288.64 394.667c1.952-57.728 9.705-112.642 22.71-165.489l-1.142 5.489h169.792v160zM544 394.667v-160h169.792c11.968 48.96 19.584 102.912 21.632 160zM329.28 170.667q13.312-37.12 29.952-68.352c35.328-66.24 77.952-105.6 120.768-118.72v187.072zM340.928 12.459c-13.262 17.323-25.925 36.854-37.036 57.348l-1.172 2.364c-14.981 27.764-28.866 60.359-39.788 94.284l-1.172 4.212h-117.44c49.004-69.833 115.704-124.187 193.665-157.105l2.943-1.103zM244.48 234.667c-10.889 47.279-18.065 102.252-19.93 158.57l-0.038 1.43h-159.36c3.968-56.96 18.624-110.912 41.984-160zM683.072 12.459c80.904 34.021 147.603 88.374 195.656 156.778l0.952 1.43h-117.44c-12.095-38.138-25.979-70.733-42.521-101.695l1.561 3.199c-12.283-22.858-24.946-42.389-39.003-60.798l0.795 1.086zM544 170.667v-187.072c42.88 13.056 85.44 52.48 120.768 118.72q16.64 31.168 29.952 68.352zM779.52 234.667h137.344c23.36 49.088 38.016 103.040 41.984 160h-159.36c-1.903-57.746-9.079-112.719-21.081-165.863l1.113 5.863zM958.848 458.667c-4.295 58.888-19.326 113.303-43.149 162.679l1.165-2.679h-137.344c11.136-50.048 18.048-103.872 19.968-160zM721.28 781.163c15.808-29.696 29.568-62.72 40.96-98.496h117.44c-49.004 69.833-115.704 124.187-193.665 157.105l-2.943 1.103c13.952-18.176 26.752-38.272 38.208-59.712zM694.72 682.667c-9.581 26.909-19.683 49.463-31.294 71.087l1.342-2.735c-35.328 66.24-77.888 105.6-120.768 118.72v-187.072z" />
<glyph unicode="&#xe917;" glyph-name="globe2" d="M0 426.667c0 282.77 229.23 512 512 512s512-229.23 512-512v0c0-282.77-229.23-512-512-512s-512 229.23-512 512v0zM480 869.739c-42.88-13.056-85.44-52.48-120.768-118.72q-13.76-25.792-25.28-55.808c45.12-10.048 94.208-16.448 146.048-18.368zM271.936 712.171q13.696 36.928 30.784 68.992c12.283 22.858 24.946 42.389 39.003 60.798l-0.795-1.086c-56.675-23.824-105.054-56.73-145.658-97.402l-0.006-0.006q34.816-17.728 76.672-31.36zM224.576 458.667c2.304 68.48 12.032 133.568 27.904 192.512-38.646 12.43-71.78 26.892-103.129 44.19l2.969-1.502c-49.032-65.222-80.781-145.972-87.085-233.766l-0.083-1.434zM314.176 634.091c-14.302-52.025-23.515-112.177-25.566-174.142l-0.034-1.282h191.424v154.176c-58.24 1.92-114.112 9.28-165.824 21.248zM544 612.907v-154.24h191.36c-2.062 63.237-11.253 123.393-26.805 180.936l1.269-5.512c-51.712-11.968-107.584-19.264-165.824-21.248zM288.64 394.667c2.24-63.168 11.264-122.496 25.536-175.424 49.078 11.669 106.040 19.287 164.455 21.149l1.369 0.035v154.24zM544 394.667v-154.176c58.24-1.92 114.112-9.28 165.824-21.248 14.272 52.928 23.296 112.256 25.6 175.424zM333.952 158.123q11.52-30.016 25.28-55.808c35.328-66.24 77.952-105.6 120.768-118.72v192.832c-51.84-1.92-100.928-8.32-146.048-18.368zM340.992 12.459c-13.286 17.327-25.969 36.857-37.1 57.353l-1.172 2.359c-10.232 18.831-20.597 41.595-29.47 65.091l-1.314 3.965c-30.056-9.736-55.418-20.356-79.711-32.77l3.039 1.41c40.61-40.678 88.989-73.584 142.724-96.304l2.94-1.104zM252.48 202.155c-15.714 57.128-25.785 123.152-27.935 191.174l-0.033 1.338h-159.36c6.387-89.228 38.136-169.978 87.993-236.347l-0.825 1.147c30.080 16.512 63.68 30.848 100.16 42.688zM683.072 12.459c56.648 23.813 105.005 56.697 145.595 97.339l0.005 0.005c-21.235 11-46.575 21.62-72.809 30.275l-3.799 1.085c-10.19-27.437-20.554-50.179-32.293-72.074l1.509 3.082c-12.283-22.858-24.946-42.389-39.003-60.798l0.795 1.086zM544 176.491v-192.896c42.88 13.056 85.44 52.48 120.768 118.72q13.824 25.792 25.28 55.808c-43.123 9.926-93.296 16.501-144.689 18.267l-1.359 0.037zM771.52 202.155c36.48-11.84 70.080-26.176 100.16-42.688 49.032 65.222 80.781 145.972 87.085 233.766l0.083 1.434h-159.36c-2.183-69.36-12.254-135.384-29.354-198.519l1.386 6.007zM958.848 458.667c-6.387 89.228-38.136 169.978-87.993 236.347l0.825-1.147c-30.080-16.512-63.68-30.848-100.16-42.688 15.872-58.88 25.6-124.032 27.968-192.512zM721.28 781.163q17.024-32.128 30.848-68.992c30.009 9.744 55.328 20.363 79.58 32.77l-3.036-1.41c-40.598 40.623-88.955 73.486-142.658 96.176l-2.942 1.104c13.952-18.112 26.752-38.208 38.208-59.648zM690.048 695.211c-8.605 22.412-17.105 40.794-26.622 58.549l1.342-2.741c-35.328 66.24-77.888 105.6-120.768 118.72v-192.832c51.84 1.92 100.928 8.32 146.048 18.368z" />
<glyph unicode="&#xe918;" glyph-name="hand-thumbs-up" d="M567.296 935.723c-61.184 15.296-118.016-30.976-122.112-90.88-4.608-67.264-14.72-129.024-27.392-165.76-8-23.040-30.656-64.832-66.56-104.896-35.648-39.872-82.048-75.392-136.384-90.24-43.008-11.712-86.848-48.96-86.848-103.36v-256.064c0-54.080 43.648-93.696 92.672-98.88 68.48-7.296 100.096-26.56 132.352-46.272l3.072-1.92c17.408-10.56 36.992-22.272 62.080-30.976 25.408-8.704 55.104-13.888 93.824-13.888h224c59.968 0 102.336 30.528 123.776 68.096 9.94 16.725 15.938 36.813 16.255 58.278l0.001 0.090c0 9.728-1.472 19.968-4.928 29.696 12.864 16.832 24.32 36.992 31.232 57.664 7.040 21.12 11.008 48.768 0.256 73.536 4.416 8.32 7.68 17.216 10.176 25.792 4.928 17.28 7.232 36.352 7.232 54.848 0 18.432-2.304 37.44-7.232 54.784-2.467 8.913-5.479 16.607-9.168 23.9l0.336-0.732c13.834 19.472 22.115 43.731 22.115 69.924 0 14.723-2.617 28.835-7.41 41.896l0.271-0.844c-13.184 37.888-43.648 70.4-76.8 81.408-54.208 18.048-115.392 17.664-161.024 13.504-12.329-1.103-22.059-2.236-31.72-3.585l3.368 0.385c9.936 40.935 15.634 87.931 15.634 136.258 0 54.143-7.153 106.616-20.564 156.525l0.962-4.207c-8.979 30.769-33.442 54.233-64.165 61.637l-0.603 0.123zM736-3.477h-224c-32.64 0-55.232 4.416-72.96 10.496-17.984 6.208-32.384 14.592-49.664 25.152l-2.56 1.536c-35.52 21.696-76.672 46.784-159.36 55.552-21.312 2.304-35.456 18.56-35.456 35.2v256.128c0 16.256 14.464 34.752 39.68 41.6 70.080 19.2 126.528 63.744 167.296 109.312 40.64 45.44 68.096 94.4 79.232 126.592 15.552 44.8 26.048 113.152 30.848 182.4 1.6 23.168 23.040 38.016 42.688 33.152l16.768-4.224c10.24-2.56 16.512-9.152 18.432-16.32 11.105-40.653 17.485-87.331 17.485-135.499 0-59.683-9.795-117.077-27.866-170.664l1.101 3.763c-1.051-3.033-1.658-6.528-1.658-10.166 0-17.673 14.327-32 32-32 2.748 0 5.415 0.346 7.959 0.998l-0.030 0.016 0.896 0.192 3.712 0.896c18.344 4.128 40.966 7.676 63.983 9.869l2.321 0.179c42.432 3.84 93.248 3.456 135.040-10.496 11.2-3.712 28.8-19.2 36.48-41.6 6.848-19.712 5.568-42.88-17.024-65.408l-22.592-22.592 22.592-22.656c2.752-2.752 6.72-9.024 9.856-20.16 3.072-10.688 4.8-23.68 4.8-37.184 0-13.568-1.728-26.496-4.8-37.248-3.2-11.136-7.104-17.408-9.856-20.16l-22.592-22.592 22.592-22.656c3.008-3.008 6.976-11.328 0.32-31.232-7.297-20.115-18.314-37.31-32.337-51.537l-22.575-22.575 22.592-22.656c0.384-0.32 2.624-3.2 2.624-10.88-0.406-9.861-3.23-18.983-7.891-26.893l0.147 0.269c-10.56-18.432-32.192-35.84-68.224-35.84z" />
<glyph unicode="&#xe919;" glyph-name="hand-thumbs-up-fill" d="M445.184 826.987c4.16 59.84 60.928 106.112 122.112 90.88l16.704-4.224c29.632-7.424 55.936-29.184 64.768-61.76 14.080-52.224 34.112-160.704 3.968-288.64 6.253 0.975 15.979 2.13 25.769 3.065l2.583 0.199c45.632 4.16 106.816 4.608 161.024-13.44 33.152-11.072 63.616-43.584 76.8-81.472 11.776-34.048 10.24-74.368-14.976-110.912q5.504-11.52 8.832-23.232c4.928-17.28 7.232-36.288 7.232-54.784s-2.304-37.504-7.232-54.784c-2.496-8.64-5.76-17.472-10.24-25.856 10.816-24.768 6.848-52.416-0.192-73.472-7.81-22.057-18.388-41.157-31.578-58.126l0.346 0.462c3.456-9.728 4.864-19.968 4.864-29.76 0-19.52-5.696-40-16.192-58.368-21.376-37.504-63.808-68.096-123.776-68.096h-224c-38.72 0-68.48 5.184-93.824 13.952-23.754 8.764-44.233 19.202-63.242 31.693l1.162-0.717-3.072 1.92c-32.256 19.648-63.936 38.976-132.352 46.208-49.024 5.248-92.672 44.8-92.672 98.944v256c0 54.4 43.84 91.648 86.848 103.36 54.336 14.848 100.736 50.368 136.448 90.24 35.84 40.128 58.496 81.92 66.496 104.896 12.736 36.8 22.784 98.496 27.392 165.76z" />
<glyph unicode="&#xe91a;" glyph-name="lightning-charge" d="M720.064 934.315c9.605-5.642 15.951-15.922 15.951-27.684 0-3.368-0.52-6.614-1.485-9.662l0.062 0.227-115.264-374.528h212.672c0.004 0 0.008 0 0.013 0 17.673 0 32-14.327 32-32 0-8.506-3.318-16.236-8.731-21.967l0.014 0.015-512-544c-5.851-6.211-14.129-10.078-23.311-10.078-17.673 0-32 14.327-32 32 0 3.368 0.52 6.615 1.485 9.665l-0.062-0.227 115.264 374.592h-212.672c-0.004 0-0.008 0-0.013 0-17.673 0-32 14.327-32 32 0 8.506 3.318 16.236 8.731 21.967l-0.014-0.015 512 544c5.851 6.21 14.129 10.076 23.31 10.076 5.911 0 11.448-1.603 16.2-4.398l-0.15 0.082zM266.048 394.667h181.952c0.002 0 0.004 0 0.006 0 17.673 0 32-14.327 32-32 0-3.357-0.517-6.594-1.476-9.635l0.062 0.227-87.552-284.352 366.848 389.76h-181.888c-0.002 0-0.004 0-0.006 0-17.673 0-32 14.327-32 32 0 3.357 0.517 6.594 1.476 9.635l-0.062-0.227 87.552 284.352z" />
<glyph unicode="&#xe91b;" glyph-name="lightning-charge-fill" d="M720.064 934.315c9.605-5.642 15.951-15.922 15.951-27.684 0-3.368-0.52-6.614-1.485-9.662l0.062 0.227-115.264-374.528h212.672c0.004 0 0.008 0 0.013 0 17.673 0 32-14.327 32-32 0-8.506-3.318-16.236-8.731-21.967l0.014 0.015-512-544c-5.851-6.211-14.129-10.078-23.311-10.078-17.673 0-32 14.327-32 32 0 3.368 0.52 6.615 1.485 9.665l-0.062-0.227 115.264 374.592h-212.672c-0.004 0-0.008 0-0.013 0-17.673 0-32 14.327-32 32 0 8.506 3.318 16.236 8.731 21.967l-0.014-0.015 512 544c5.851 6.21 14.129 10.076 23.31 10.076 5.911 0 11.448-1.603 16.2-4.398l-0.15 0.082z" />
<glyph unicode="&#xe91c;" glyph-name="lightning-fill" d="M353.28 915.691c4.027 13.389 16.245 22.976 30.701 22.976 0.007 0 0.013 0 0.020 0h255.999c17.663-0.014 31.976-14.335 31.976-32 0-3.617-0.6-7.094-1.706-10.337l0.067 0.225-113.92-341.888h243.584c0.007 0 0.014 0 0.022 0 17.673 0 32-14.327 32-32 0-7.438-2.538-14.284-6.795-19.718l0.053 0.070-448-576c-5.909-7.582-15.043-12.413-25.305-12.413-17.673 0-32 14.327-32 32 0 3.38 0.524 6.637 1.495 9.695l-0.062-0.227 115.264 374.592h-212.672c-0.006 0-0.012 0-0.019 0-17.673 0-32 14.327-32 32 0 3.216 0.475 6.322 1.357 9.251l-0.059-0.227z" />
<glyph unicode="&#xe91d;" glyph-name="link" d="M301.76 519.979l-87.808-87.808c-34.748-34.748-56.24-82.752-56.24-135.776 0-106.048 85.969-192.016 192.016-192.016 53.024 0 101.028 21.492 135.776 56.24v0l116.992 117.056c34.739 34.744 56.226 82.74 56.226 135.755 0 75.946-44.095 141.593-108.079 172.737l-1.139 0.5-37.504-37.504c-3.717-3.722-6.979-7.901-9.694-12.444l-0.162-0.292c53.933-15.868 92.635-64.923 92.635-123.018 0-35.366-14.343-67.383-37.53-90.55l-116.929-116.993c-23.176-23.176-55.194-37.511-90.56-37.511-70.732 0-128.071 57.339-128.071 128.071 0 35.366 14.335 67.384 37.511 90.56v0l50.752 50.688c-5.527 19.852-8.704 42.648-8.704 66.186 0 5.693 0.186 11.343 0.552 16.943l-0.040-0.762zM421.504 639.659c-34.739-34.744-56.226-82.74-56.226-135.755 0-75.946 44.095-141.593 108.079-172.737l1.139-0.5 49.6 49.664c-55.058 15.124-94.839 64.731-94.839 123.63 0 35.349 14.329 67.35 37.495 90.514l116.928 116.992c23.176 23.176 55.194 37.511 90.56 37.511 70.732 0 128.071-57.339 128.071-128.071 0-35.366-14.335-67.384-37.511-90.56v0l-50.752-50.688c7.168-26.88 9.92-54.72 8.192-82.368l87.808 87.808c34.748 34.748 56.24 82.752 56.24 135.776 0 106.048-85.969 192.016-192.016 192.016-53.024 0-101.028-21.492-135.776-56.24v0z" />
<glyph unicode="&#xe91e;" glyph-name="pencil" d="M777.344 929.323c5.794 5.808 13.805 9.401 22.656 9.401s16.862-3.593 22.655-9.401l192.001-192.001c5.808-5.794 9.401-13.805 9.401-22.656s-3.593-16.862-9.401-22.655l-640.001-640.001c-2.99-2.97-6.565-5.354-10.538-6.963l-0.214-0.077-320-128c-3.521-1.45-7.608-2.292-11.892-2.292-17.673 0-32 14.327-32 32 0 4.284 0.842 8.371 2.369 12.105l-0.077-0.214 128 320c1.686 4.187 4.070 7.762 7.042 10.754l-0.002-0.002zM717.248 778.667l146.752-146.752 82.752 82.752-146.752 146.752zM818.752 586.667l-146.752 146.752-416-416v-18.752h32c17.673 0 32-14.327 32-32v0-32h32c17.673 0 32-14.327 32-32v0-32h18.752zM194.048 255.467l-6.784-6.784-97.792-244.544 244.544 97.792 6.784 6.784c-12.246 4.669-20.789 16.312-20.8 29.951v32.001h-32c-17.673 0-32 14.327-32 32v0 32h-32c-13.64 0.011-25.283 8.554-29.878 20.581l-0.074 0.219z" />
<glyph unicode="&#xe91f;" glyph-name="pencil-fill" d="M822.656 929.323c-5.791 5.789-13.789 9.369-22.624 9.369s-16.833-3.58-22.624-9.369l-105.408-105.408 237.248-237.248 105.408 105.344c5.808 5.794 9.401 13.805 9.401 22.656s-3.593 16.862-9.401 22.655l-0.001 0.001zM864 541.419l-237.248 237.248-416-416h13.248c17.673 0 32-14.327 32-32v0-32h32c17.673 0 32-14.327 32-32v0-32h32c17.673 0 32-14.327 32-32v0-32h32c17.673 0 32-14.327 32-32v0-13.248zM386.048 63.467c-1.289 3.325-2.040 7.174-2.048 11.196v32.004h-32c-17.673 0-32 14.327-32 32v0 32h-32c-17.673 0-32 14.327-32 32v0 32h-32c-17.673 0-32 14.327-32 32v0 32h-32c-4.026 0.008-7.875 0.759-11.419 2.122l0.219-0.074-11.456-11.392c-2.97-2.99-5.354-6.565-6.963-10.538l-0.077-0.214-128-320c-1.45-3.521-2.292-7.608-2.292-11.892 0-17.673 14.327-32 32-32 4.284 0 8.371 0.842 12.105 2.369l-0.214-0.077 320 128c4.187 1.686 7.762 4.070 10.754 7.042l-0.002-0.002z" />
<glyph unicode="&#xe920;" glyph-name="plus" d="M512 682.667c17.673 0 32-14.327 32-32v0-192h192c17.673 0 32-14.327 32-32s-14.327-32-32-32v0h-192v-192c0-17.673-14.327-32-32-32s-32 14.327-32 32v0 192h-192c-17.673 0-32 14.327-32 32s14.327 32 32 32v0h192v192c0 17.673 14.327 32 32 32v0z" />
<glyph unicode="&#xe921;" glyph-name="plus-lg" d="M512 810.667c17.673 0 32-14.327 32-32v0-320h320c17.673 0 32-14.327 32-32s-14.327-32-32-32v0h-320v-320c0-17.673-14.327-32-32-32s-32 14.327-32 32v0 320h-320c-17.673 0-32 14.327-32 32s14.327 32 32 32v0h320v320c0 17.673 14.327 32 32 32v0z" />
<glyph unicode="&#xe922;" glyph-name="rocket-takeoff" d="M624.128 542.315c38.336-38.4 110.72-27.968 161.792 23.168s61.44 123.648 23.168 161.984c-38.336 38.4-110.72 28.032-161.792-23.104-51.072-51.2-61.44-123.712-23.168-162.048zM1011.904 726.699c-23.232-98.176-85.376-232.064-232.96-397.952l-15.36-154.112c-4.372-38.417-21.445-72.2-46.851-97.667l0.003 0.003-152.448-152.704c-5.919-5.982-14.13-9.687-23.206-9.687-18.027 0-32.64 14.613-32.64 32.64 0 1.702 0.13 3.374 0.381 5.005l-0.023-0.182 17.28 121.536c2.56 17.92-0.832 37.952-8.384 61.184-6.068 18.218-11.465 32.134-17.374 45.777l1.438-3.729-5.248 12.928c-52.16 12.608-100.992 42.368-140.224 81.728-39.296 39.36-69.056 88.256-81.6 140.48l-12.992 5.312c-9.457 4.246-23.33 9.62-37.427 14.514l-4.493 1.358c-23.232 7.616-43.2 11.008-61.12 8.448l-121.344-17.28c-1.427-0.221-3.073-0.347-4.748-0.347-18.027 0-32.64 14.613-32.64 32.64 0 9.071 3.7 17.277 9.673 23.193l0.003 0.003 152.448 152.704c26.24 26.24 60.608 42.88 97.536 46.976h0.384l153.6 15.232c162.752 144.768 296 206.72 394.304 230.656 56.96 13.888 101.76 14.848 133.12 12.032 15.616-1.472 27.84-3.84 36.48-5.952q6.4-1.664 10.24-2.88c11.776-3.84 17.856-8.32 22.464-18.88l1.856-4.672c4.601-13.345 8.136-28.974 9.955-45.123l0.093-1.021c3.52-31.040 3.264-75.392-10.176-132.16zM702.912 248.299l2.56 2.56-6.848-69.184c-2.698-22.989-12.947-43.19-28.162-58.434l-83.070-83.198 3.456 24.32c4.608 32.384-2.176 63.552-11.008 90.752-4.516 13.71-8.075 23.251-11.875 32.668l1.379-3.868c47.232 4.16 93.568 24.32 133.568 64.384zM333.12 618.667c-40-40.064-60.16-86.464-64.256-133.76-5.55 2.422-15.091 5.98-24.748 9.289l-4.052 1.207c-27.136 8.832-58.24 15.616-90.624 11.008l-24.32-3.456 83.2 83.2c15.68 15.744 36.224 25.664 58.24 28.16l69.12 6.848zM935.104 872.171c-24.32 2.176-61.888 1.728-111.744-10.432-99.712-24.32-250.688-95.744-443.968-289.344-39.68-39.68-51.136-85.76-43.968-131.264 6.848-43.264 30.912-87.168 67.072-123.392 36.096-36.16 80-60.224 123.136-67.136 45.44-7.168 91.456 4.288 131.072 44.032 197.056 197.312 268.288 348.416 291.584 447.168 11.712 49.344 11.52 86.080 8.832 109.632-0.794 7.141-1.807 13.31-3.106 19.372l0.226-1.26c-5.241 1.056-11.807 1.984-18.471 2.572l-0.729 0.052zM448.576 161.771c-44.25 24.115-82.253 52.896-115.405 86.477l-0.051 0.051c-35.552 35.248-65.667 75.902-89.028 120.643l-1.276 2.685c-70.528-63.488-125.76-323.456-117.696-331.52 8-8.064 251.904 57.344 323.456 121.728z" />
<glyph unicode="&#xe923;" glyph-name="rocket-takeoff-fill" d="M778.88 328.747c147.648 165.888 209.792 299.776 233.024 397.952 13.44 56.768 13.696 101.12 10.24 132.16-1.522 13.589-3.952 25.816-7.305 37.656l0.393-1.624c-1.62 5.921-3.324 10.816-5.305 15.566l0.313-0.846v0.064c-4.672 10.496-10.752 14.976-22.528 18.88-2.459 0.863-5.884 1.853-9.364 2.7l-0.876 0.18c-10.34 2.599-22.771 4.702-35.471 5.877l-1.009 0.075c-31.36 2.816-76.16 1.92-133.12-12.032-98.304-23.936-231.552-85.952-394.304-230.656l-153.984-15.232c-38.396-4.386-72.144-21.509-97.532-46.972l-0.004-0.004-152.448-152.704c-5.881-5.922-9.516-14.081-9.516-23.089 0-18.097 14.671-32.768 32.768-32.768 1.573 0 3.12 0.111 4.634 0.325l-0.174-0.020 121.344 17.344c17.92 2.56 37.888-0.832 61.12-8.448 14.848-4.864 27.968-10.24 41.92-15.872l12.992-5.312c12.544-52.224 42.24-101.12 81.6-140.48 39.232-39.296 88.064-69.12 140.224-81.728l5.248-12.928c5.696-13.952 11.072-27.136 15.936-42.048 7.552-23.232 11.008-43.264 8.448-61.184l-17.344-121.6c-0.188-1.318-0.295-2.84-0.295-4.387 0-18.097 14.671-32.768 32.768-32.768 8.972 0 17.101 3.605 23.018 9.447l-0.003-0.003 152.448 152.704c26.24 26.24 42.752 60.736 46.848 97.664zM785.92 565.483c-51.008-51.2-123.52-61.504-161.792-23.168-38.272 38.4-27.904 110.912 23.104 162.048 51.072 51.136 123.52 61.44 161.792 23.104s27.968-110.848-23.040-161.984zM333.12 248.299c33.203-33.632 71.206-62.413 112.923-85.258l2.533-1.27c-71.552-64.448-315.456-129.792-323.456-121.792-8.064 8.128 47.168 268.096 117.696 331.52 22.144-44.16 53.568-86.4 90.304-123.2z" />
<glyph unicode="&#xe924;" glyph-name="rulers" d="M64 938.667c-35.346 0-64-28.654-64-64v0-896c0-35.346 28.654-64 64-64v0h320v64h-256v64h256v64h-128v64h128v64h-256v64h256v64h-128v64h128v64h-256v64h256v256h64v-256h64v128h64v-128h64v256h64v-256h64v128h64v-128h64v256h64v-256h64v320c0 35.346-28.654 64-64 64v0z" />
<glyph unicode="&#xe925;" glyph-name="search" d="M751.488 276.651c50.265 67.948 80.455 153.397 80.455 245.897 0 229.75-186.25 416-416 416s-416-186.25-416-416c0-229.75 186.25-416 416-416 92.605 0 178.143 30.259 247.265 81.429l-1.128-0.798h-0.064q2.816-3.84 6.272-7.36l246.4-246.4c11.586-11.594 27.595-18.765 45.28-18.765 35.353 0 64.013 28.66 64.013 64.013 0 17.669-7.158 33.665-18.733 45.248l-246.4 246.4c-2.242 2.271-4.644 4.369-7.194 6.281l-0.166 0.119zM768 522.667c0-194.404-157.596-352-352-352s-352 157.596-352 352v0c0 194.404 157.596 352 352 352s352-157.596 352-352v0z" />
<glyph unicode="&#xe926;" glyph-name="sliders" d="M736 810.667c-53.019 0-96-42.981-96-96s42.981-96 96-96v0c53.019 0 96 42.981 96 96s-42.981 96-96 96v0zM579.2 746.667c15.344 73.633 79.704 128.16 156.8 128.16s141.456-54.527 156.618-127.12l0.182-1.040h131.2v-64h-131.2c-15.344-73.633-79.704-128.16-156.8-128.16s-141.456 54.527-156.618 127.12l-0.182 1.040h-579.2v64zM288 490.667c-53.019 0-96-42.981-96-96s42.981-96 96-96v0c53.019 0 96 42.981 96 96s-42.981 96-96 96v0zM131.2 426.667c15.344 73.633 79.704 128.16 156.8 128.16s141.456-54.527 156.618-127.12l0.182-1.040h579.2v-64h-579.2c-15.344-73.633-79.704-128.16-156.8-128.16s-141.456 54.527-156.618 127.12l-0.182 1.040h-131.2v64zM736 170.667c-53.019 0-96-42.981-96-96s42.981-96 96-96v0c53.019 0 96 42.981 96 96s-42.981 96-96 96v0zM579.2 106.667c15.344 73.633 79.704 128.16 156.8 128.16s141.456-54.527 156.618-127.12l0.182-1.040h131.2v-64h-131.2c-15.344-73.633-79.704-128.16-156.8-128.16s-141.456 54.527-156.618 127.12l-0.182 1.040h-579.2v64z" />
<glyph unicode="&#xe927;" glyph-name="star" d="M183.424-11.733c-4.992-28.416 23.040-50.624 47.744-37.952l280.96 144.384 280.896-144.384c24.704-12.672 52.736 9.536 47.744 37.888l-53.12 302.72 225.408 214.784c21.12 20.096 10.24 56.832-18.048 60.8l-313.472 44.544-139.776 276.928c-5.394 11.183-16.644 18.761-29.664 18.761s-24.27-7.579-29.579-18.565l-0.085-0.196-139.776-276.992-313.472-44.544c-28.224-3.968-39.168-40.704-18.112-60.8l225.472-214.784-53.12-302.72zM497.344 165.355l-235.904-121.216 44.416 253.248c0.374 1.944 0.588 4.18 0.588 6.465 0 10.154-4.223 19.322-11.008 25.843l-0.012 0.011-185.984 177.28 259.328 36.864c11.092 1.777 20.254 8.721 25.063 18.238l0.089 0.194 118.080 234.112 118.208-234.112c4.898-9.711 14.060-16.655 24.958-18.406l0.194-0.026 259.328-36.8-185.984-177.28c-6.803-6.533-11.030-15.705-11.030-25.864 0-2.305 0.218-4.559 0.633-6.743l-0.035 0.224 44.416-253.248-235.904 121.216c-4.282 2.27-9.361 3.603-14.752 3.603s-10.47-1.333-14.926-3.687l0.174 0.084z" />
<glyph unicode="&#xe928;" glyph-name="star-fill" d="M231.168-49.685c-24.704-12.672-52.736 9.536-47.744 37.888l53.12 302.72-225.472 214.784c-21.056 20.096-10.112 56.832 18.112 60.8l313.472 44.544 139.776 276.928c12.608 24.96 46.72 24.96 59.328 0l139.776-276.928 313.472-44.544c28.224-3.968 39.168-40.704 18.048-60.8l-225.408-214.784 53.12-302.72c4.992-28.352-23.040-50.56-47.744-37.888l-281.024 144.384-280.896-144.384z" />
<glyph unicode="&#xe929;" glyph-name="star-half" d="M342.656 611.051l139.776 276.928c5.481 11.055 16.633 18.55 29.55 18.688h0.018c11.712 0 23.424-6.208 29.76-18.688l139.776-276.928 313.472-44.544c15.962-2.654 28.114-15.946 28.988-32.233l0.004-0.087c0.077-0.874 0.121-1.89 0.121-2.917 0-10.059-4.22-19.133-10.985-25.548l-0.016-0.015-225.472-214.784 53.12-302.72c4.992-28.352-23.040-50.56-47.744-37.888l-281.024 144.384-280.896-144.384c-2.701-1.455-5.836-2.568-9.148-3.17l-0.196-0.030c-21.888-3.84-42.752 16.256-38.4 41.088l53.12 302.72-225.408 214.784c-6.786 6.43-11.009 15.507-11.009 25.57 0 0.078 0 0.156 0.001 0.234v-0.012c0.073 7.146 2.086 13.806 5.536 19.499l-0.096-0.171c5.049 8.397 13.56 14.27 23.508 15.66l0.172 0.020zM512 168.939c0.039 0 0.086 0 0.132 0 5.376 0 10.443-1.326 14.89-3.668l-0.175 0.084 235.904-121.216-44.416 253.248c-0.38 1.96-0.598 4.213-0.598 6.517 0 10.128 4.201 19.274 10.955 25.792l0.011 0.010 186.048 177.28-259.328 36.864c-11.092 1.777-20.254 8.721-25.063 18.238l-0.089 0.194-118.208 234.112-0.064-0.192z" />
<glyph unicode="&#xe92a;" glyph-name="stars" d="M490.048 538.859c7.040 21.12 36.864 21.12 43.904 0l41.28-123.968c18.853-55.376 61.667-98.169 115.754-116.606l1.302-0.386 123.904-41.28c21.12-7.040 21.12-36.864 0-43.904l-123.968-41.28c-55.376-18.853-98.169-61.667-116.606-115.754l-0.386-1.302-41.28-123.904c-3.123-9.31-11.768-15.9-21.952-15.9s-18.829 6.589-21.904 15.737l-0.048 0.163-41.28 123.968c-18.84 55.364-61.629 98.152-115.69 116.606l-1.302 0.386-123.968 41.28c-9.31 3.123-15.9 11.768-15.9 21.952s6.589 18.829 15.737 21.904l0.163 0.048 123.968 41.28c55.364 18.84 98.152 61.629 116.606 115.69l0.386 1.302zM242.816 865.195c1.888 5.578 7.075 9.522 13.184 9.522s11.296-3.944 13.155-9.425l0.029-0.098 24.768-74.368c11.072-33.152 37.056-59.136 70.208-70.208l74.368-24.768c5.578-1.888 9.522-7.075 9.522-13.184s-3.944-11.296-9.425-13.155l-0.098-0.029-74.368-24.768c-33.247-11.267-58.941-36.961-69.978-69.428l-0.23-0.78-24.768-74.368c-1.888-5.578-7.075-9.522-13.184-9.522s-11.296 3.944-13.155 9.425l-0.029 0.098-24.768 74.368c-11.267 33.247-36.961 58.941-69.428 69.978l-0.78 0.23-74.368 24.768c-5.578 1.888-9.522 7.075-9.522 13.184s3.944 11.296 9.425 13.155l0.098 0.029 74.368 24.768c33.247 11.267 58.941 36.961 69.978 69.428l0.23 0.78zM695.232 932.331c1.297 3.663 4.732 6.24 8.768 6.24s7.471-2.577 8.748-6.175l0.020-0.065 16.512-49.536c7.36-22.144 24.704-39.488 46.848-46.848l49.536-16.512c3.663-1.297 6.24-4.732 6.24-8.768s-2.577-7.471-6.175-8.748l-0.065-0.020-49.536-16.512c-22.155-7.569-39.279-24.693-46.692-46.326l-0.156-0.522-16.512-49.536c-1.297-3.663-4.732-6.24-8.768-6.24s-7.471 2.577-8.748 6.175l-0.020 0.065-16.512 49.536c-7.569 22.155-24.693 39.279-46.326 46.692l-0.522 0.156-49.472 16.512c-3.663 1.297-6.24 4.732-6.24 8.768s2.577 7.471 6.175 8.748l0.065 0.020 49.536 16.512c22.144 7.36 39.488 24.704 46.848 46.848z" />
<glyph unicode="&#xe92b;" glyph-name="tag" d="M384 650.667c0-53.019-42.981-96-96-96s-96 42.981-96 96v0c0 53.019 42.981 96 96 96s96-42.981 96-96v0zM320 650.667c0 17.673-14.327 32-32 32s-32-14.327-32-32v0c0-17.673 14.327-32 32-32s32 14.327 32 32v0zM128 874.667h293.504c17.671-0.004 33.669-7.169 45.248-18.752l448-448c11.578-11.581 18.738-27.578 18.738-45.248s-7.161-33.667-18.739-45.248l-293.504-293.504c-11.581-11.578-27.578-18.738-45.248-18.738s-33.667 7.161-45.248 18.739l-448 448c-11.583 11.579-18.748 27.576-18.752 45.247v293.505c0 35.346 28.654 64 64 64v0zM128 517.163l448-448 293.504 293.504-448 448h-293.504z" />
<glyph unicode="&#xe92c;" glyph-name="tag-fill" d="M128 874.667c-35.346 0-64-28.654-64-64v0-293.504c0.004-17.671 7.169-33.669 18.752-45.248l448-448c11.581-11.578 27.578-18.738 45.248-18.738s33.667 7.161 45.248 18.739l293.504 293.504c11.578 11.581 18.738 27.578 18.738 45.248s-7.161 33.667-18.739 45.248l-448 448c-11.579 11.583-27.576 18.748-45.247 18.752h-0.001zM384 650.667c0-53.019-42.981-96-96-96s-96 42.981-96 96v0c0 53.019 42.981 96 96 96s96-42.981 96-96v0z" />
<glyph unicode="&#xe92d;" glyph-name="wrench-adjustable" d="M1024 650.667c0-0.016 0-0.035 0-0.053 0-91.141-42.336-172.393-108.415-225.165l-0.577-0.446-83.008 193.664 189.376 71.040q2.56-19.2 2.624-39.040zM736 362.667c41.792 0 81.472 8.896 117.312 24.96l-85.312 199.040-64 160 244.864 97.92c-52.867 57.897-128.672 94.079-212.929 94.079-159.058 0-288-128.942-288-288 0-36.616 6.833-71.635 19.294-103.854l-0.669 1.967-391.424-326.144c-36.441-30.535-59.448-76.064-59.448-126.968 0-91.299 74.013-165.312 165.312-165.312 50.904 0 96.434 23.007 126.758 59.191l0.21 0.257 326.144 391.424c30.203-11.751 65.164-18.56 101.716-18.56 0.061 0 0.121 0 0.182 0h-0.010zM653.312 641.771l-38.144-57.152 51.776 17.28c1.527 0.533 3.286 0.841 5.118 0.841 8.837 0 16-7.163 16-16 0-3.347-1.028-6.455-2.785-9.023l0.035 0.055-38.144-57.152 51.776 17.28 10.112-30.4-96-32c-1.511-0.521-3.251-0.822-5.062-0.822-8.837 0-16 7.163-16 16 0 3.312 1.007 6.39 2.73 8.943l-0.036-0.057 38.144 57.152-51.776-17.28c-1.527-0.533-3.286-0.841-5.118-0.841-8.837 0-16 7.163-16 16 0 3.347 1.028 6.455 2.785 9.023l-0.035-0.055 38.144 57.152-51.776-17.28-10.112 30.4 96 32c1.511 0.521 3.251 0.822 5.062 0.822 8.837 0 16-7.163 16-16 0-3.312-1.007-6.39-2.73-8.943l0.036 0.057zM192 42.667c-35.346 0-64 28.654-64 64s28.654 64 64 64v0c35.346 0 64-28.654 64-64s-28.654-64-64-64v0z" />
<glyph unicode="&#xe92e;" glyph-name="clock" d="M512 714.667c0 17.673-14.327 32-32 32s-32-14.327-32-32v0-352c0.004-11.83 6.427-22.159 15.974-27.694l0.154-0.082 224-128c4.398-2.423 9.64-3.848 15.215-3.848 17.673 0 32 14.327 32 32 0 11.566-6.136 21.699-15.33 27.321l-208.012 118.864zM512-85.333c282.77 0 512 229.23 512 512s-229.23 512-512 512v0c-282.77 0-512-229.23-512-512s229.23-512 512-512v0zM960 426.667c0-247.424-200.576-448-448-448s-448 200.576-448 448v0c0 247.424 200.576 448 448 448s448-200.576 448-448v0z" />
<glyph unicode="&#xe92f;" glyph-name="reply" d="M422.272 617.835c1.093 0.494 2.369 0.781 3.713 0.781 5.090 0 9.216-4.126 9.216-9.216 0-0.050 0-0.099-0.001-0.149v0.007-73.792c0-17.673 14.327-32 32-32v0c42.688 0 128.832-0.32 211.2-52.608 62.976-39.936 127.36-112.64 166.080-248.064-65.28 62.912-139.84 97.024-205.12 115.136-36.278 10.465-78.333 17.48-121.688 19.537l-1.256 0.047c-6.285 0.315-13.648 0.495-21.052 0.495-10.563 0-21.040-0.366-31.42-1.085l1.401 0.078h-0.832l-0.32-0.064h-0.064l3.072-31.872-3.2 31.872c-16.242-1.68-28.8-15.293-28.8-31.84 0-0.011 0-0.023 0-0.034v0.002-73.792c0-6.912-7.040-11.264-12.928-8.576l-257.664 189.504c-2.752 1.675-4.562 4.658-4.562 8.064s1.81 6.389 4.521 8.041l0.042 0.023 2.688 1.792zM499.2 273.963q6.592 0 14.272-0.384c27.776-1.28 66.176-5.504 108.8-17.344 84.864-23.552 185.344-76.928 252.16-197.12 5.576-9.873 16.001-16.43 27.957-16.43 17.673 0 32 14.327 32 32 0 1.392-0.089 2.764-0.261 4.11l0.017-0.159c-29.696 237.44-120.704 362.368-221.44 426.24-79.68 50.56-161.728 60.288-213.504 62.144v42.24c0 0.010 0 0.021 0 0.033 0 40.436-32.78 73.216-73.216 73.216-14.825 0-28.62-4.406-40.149-11.98l0.277 0.171-255.616-188.16c-20.875-13.184-34.537-36.133-34.537-62.272s13.662-49.088 34.236-62.094l0.302-0.178 255.616-188.16c11.252-7.403 25.047-11.809 39.872-11.809 40.436 0 73.216 32.78 73.216 73.216 0 0.012 0 0.023 0 0.035v-0.002z" />
<glyph unicode="&#xe930;" glyph-name="reply-fill" d="M378.944 177.067l-292.352 209.92c-13.592 8.179-22.544 22.852-22.544 39.616s8.952 31.437 22.337 39.5l0.207 0.116 292.352 210.048c6.649 3.975 14.666 6.326 23.232 6.326 25.308 0 45.824-20.516 45.824-45.824 0-0.041 0-0.083 0-0.124v0.006-81.984c96 0 384 0 448-512-160 288-448 256-448 256v-81.984c0-35.84-38.784-57.472-69.056-39.68z" />
<glyph unicode="&#xe931;" glyph-name="check-lg" d="M815.104 684.587c8.521 8.69 20.384 14.076 33.504 14.076s24.983-5.386 33.497-14.068l0.007-0.008c18.304-18.496 18.56-48.384 0.64-67.2l-378.432-447.36c-8.612-9.432-20.96-15.326-34.685-15.326-13.106 0-24.956 5.374-33.468 14.039l-0.007 0.007-230.272 233.344c-8.567 8.732-13.855 20.709-13.855 33.92s5.288 25.188 13.863 33.928l-0.007-0.008c8.521 8.69 20.384 14.076 33.504 14.076s24.983-5.386 33.497-14.068l0.007-0.008 195.328-197.952 345.6 411.2z" />
<glyph unicode="&#xe932;" glyph-name="check2" d="M886.656 705.323c5.808-5.794 9.401-13.805 9.401-22.656s-3.593-16.862-9.401-22.655l-448.001-448.001c-5.794-5.808-13.805-9.401-22.656-9.401s-16.862 3.593-22.655 9.401l-224.001 224.001c-5.798 5.798-9.384 13.808-9.384 22.656 0 17.695 14.345 32.040 32.040 32.040 8.848 0 16.858-3.586 22.656-9.384v0l201.344-201.408 425.344 425.408c5.794 5.808 13.805 9.401 22.656 9.401s16.862-3.593 22.655-9.401l0.001-0.001z" />
<glyph unicode="&#xe933;" glyph-name="check2-circle" d="M160 426.667c0 0.016 0 0.036 0 0.055 0 194.404 157.596 352 352 352 64.801 0 125.513-17.511 177.661-48.058l-1.661 0.899c4.546-2.63 10-4.182 15.816-4.182 17.673 0 32 14.327 32 32 0 11.707-6.287 21.946-15.669 27.525l-0.147 0.081c-59.666 35.039-131.417 55.733-208 55.733-229.75 0-416-186.25-416-416s186.25-416 416-416c229.732 0 415.969 186.219 416 415.943v0.003c0 17.673-14.327 32-32 32s-32-14.327-32-32v0c0-194.404-157.596-352-352-352s-352 157.596-352 352v0zM982.656 724.011c5.798 5.798 9.384 13.808 9.384 22.656 0 17.695-14.345 32.040-32.040 32.040-8.848 0-16.858-3.586-22.656-9.384v0l-425.344-425.408-169.344 169.408c-5.798 5.798-13.808 9.384-22.656 9.384-17.695 0-32.040-14.345-32.040-32.040 0-8.848 3.586-16.858 9.384-22.656v0l192-192c5.794-5.808 13.805-9.401 22.656-9.401s16.862 3.593 22.655 9.401l0.001 0.001z" />
<glyph unicode="&#xe934;" glyph-name="check2-square" d="M192 10.667c-53.019 0-96 42.981-96 96v0 640c0 53.019 42.981 96 96 96v0h512c17.673 0 32-14.327 32-32s-14.327-32-32-32v0h-512c-17.673 0-32-14.327-32-32v0-640c0-17.673 14.327-32 32-32v0h640c17.673 0 32 14.327 32 32v0 320c0 17.673 14.327 32 32 32s32-14.327 32-32v0-320c0-53.019-42.981-96-96-96v0zM534.656 276.011l448 448c5.798 5.798 9.384 13.808 9.384 22.656 0 17.695-14.345 32.040-32.040 32.040-8.848 0-16.858-3.586-22.656-9.384v0l-425.344-425.408-169.344 169.408c-5.798 5.798-13.808 9.384-22.656 9.384-17.695 0-32.040-14.345-32.040-32.040 0-8.848 3.586-16.858 9.384-22.656v0l192-192c5.794-5.808 13.805-9.401 22.656-9.401s16.862 3.593 22.655 9.401l0.001 0.001z" />
<glyph unicode="&#xe935;" glyph-name="check2-all" d="M790.656 660.011c5.798 5.798 9.384 13.808 9.384 22.656 0 17.695-14.345 32.040-32.040 32.040-8.848 0-16.858-3.586-22.656-9.384v0l-425.344-425.408-201.344 201.408c-5.798 5.798-13.808 9.384-22.656 9.384-17.695 0-32.040-14.345-32.040-32.040 0-8.848 3.586-16.858 9.384-22.656l224-224c5.794-5.808 13.805-9.401 22.656-9.401s16.862 3.593 22.655 9.401l0.001 0.001zM521.344 212.011l-57.344 57.408 45.248 45.248 34.752-34.752 425.344 425.408c5.798 5.798 13.808 9.384 22.656 9.384 17.695 0 32.040-14.345 32.040-32.040 0-8.848-3.586-16.858-9.384-22.656v0l-448-448c-5.794-5.808-13.805-9.401-22.656-9.401s-16.862 3.593-22.655 9.401l-0.001 0.001zM342.656 481.323l57.344-57.408-45.248-45.248-57.408 57.344c-5.798 5.798-9.384 13.808-9.384 22.656 0 17.695 14.345 32.040 32.040 32.040 8.848 0 16.858-3.586 22.656-9.384v0z" />
<glyph unicode="&#xe936;" glyph-name="x-circle-fill" d="M1024 426.667c0-282.77-229.23-512-512-512s-512 229.23-512 512v0c0 282.77 229.23 512 512 512s512-229.23 512-512v0zM342.656 641.323c-5.798 5.798-13.808 9.384-22.656 9.384-17.695 0-32.040-14.345-32.040-32.040 0-8.848 3.586-16.858 9.384-22.656v0l169.408-169.344-169.408-169.344c-5.798-5.798-9.384-13.808-9.384-22.656 0-17.695 14.345-32.040 32.040-32.040 8.848 0 16.858 3.586 22.656 9.384v0l169.344 169.408 169.344-169.408c5.798-5.798 13.808-9.384 22.656-9.384 17.695 0 32.040 14.345 32.040 32.040 0 8.848-3.586 16.858-9.384 22.656v0l-169.408 169.344 169.408 169.344c5.798 5.798 9.384 13.808 9.384 22.656 0 17.695-14.345 32.040-32.040 32.040-8.848 0-16.858-3.586-22.656-9.384v0l-169.344-169.408z" />
<glyph unicode="&#xe937;" glyph-name="x" d="M297.344 641.323c5.794 5.808 13.805 9.401 22.656 9.401s16.862-3.593 22.655-9.401l169.345-169.409 169.344 169.408c5.798 5.798 13.808 9.384 22.656 9.384 17.695 0 32.040-14.345 32.040-32.040 0-8.848-3.586-16.858-9.384-22.656v0l-169.408-169.344 169.408-169.344c5.798-5.798 9.384-13.808 9.384-22.656 0-17.695-14.345-32.040-32.040-32.040-8.848 0-16.858 3.586-22.656 9.384v0l-169.344 169.408-169.344-169.408c-5.798-5.798-13.808-9.384-22.656-9.384-17.695 0-32.040 14.345-32.040 32.040 0 8.848 3.586 16.858 9.384 22.656v0l169.408 169.344-169.408 169.344c-5.808 5.794-9.401 13.805-9.401 22.656s3.593 16.862 9.401 22.655l0.001 0.001z" />
<glyph unicode="&#xe938;" glyph-name="x-circle" d="M512-21.333c-247.424 0-448 200.576-448 448s200.576 448 448 448v0c247.424 0 448-200.576 448-448s-200.576-448-448-448v0zM512-85.333c282.77 0 512 229.23 512 512s-229.23 512-512 512v0c-282.77 0-512-229.23-512-512s229.23-512 512-512v0zM297.344 641.323c5.794 5.808 13.805 9.401 22.656 9.401s16.862-3.593 22.655-9.401l169.345-169.409 169.344 169.408c5.798 5.798 13.808 9.384 22.656 9.384 17.695 0 32.040-14.345 32.040-32.040 0-8.848-3.586-16.858-9.384-22.656v0l-169.408-169.344 169.408-169.344c5.798-5.798 9.384-13.808 9.384-22.656 0-17.695-14.345-32.040-32.040-32.040-8.848 0-16.858 3.586-22.656 9.384v0l-169.344 169.408-169.344-169.408c-5.798-5.798-13.808-9.384-22.656-9.384-17.695 0-32.040 14.345-32.040 32.040 0 8.848 3.586 16.858 9.384 22.656v0l169.408 169.344-169.408 169.344c-5.808 5.794-9.401 13.805-9.401 22.656s3.593 16.862 9.401 22.655l0.001 0.001z" />
<glyph unicode="&#xe939;" glyph-name="play-fill" d="M742.144 382.059l-407.232-236.288c-34.56-20.032-78.912 4.224-78.912 44.608v472.576c0 40.32 44.288 64.64 78.912 44.544l407.232-236.288c15.572-9.011 25.881-25.59 25.881-44.576s-10.309-35.565-25.635-44.444l-0.247-0.132z" />
<glyph unicode="&#xe93a;" glyph-name="play" d="M691.456 426.667l-371.456 215.488v-430.976zM742.144 471.211c15.541-9.018 25.825-25.58 25.825-44.544s-10.284-35.526-25.58-44.412l-0.245-0.132-407.232-236.288c-33.28-19.328-78.912 2.752-78.912 44.544v472.576c0 41.792 45.632 63.872 78.912 44.544z" />
<glyph unicode="&#xe93b;" glyph-name="chevron-down" d="M105.344 641.323c5.794 5.808 13.805 9.401 22.656 9.401s16.862-3.593 22.655-9.401l361.345-361.409 361.344 361.408c5.798 5.798 13.808 9.384 22.656 9.384 17.695 0 32.040-14.345 32.040-32.040 0-8.848-3.586-16.858-9.384-22.656v0l-384-384c-5.794-5.808-13.805-9.401-22.656-9.401s-16.862 3.593-22.655 9.401l-384.001 384.001c-5.808 5.794-9.401 13.805-9.401 22.656s3.593 16.862 9.401 22.655l0.001 0.001z" />
<glyph unicode="&#xe93c;" glyph-name="chevron-left" d="M726.656 833.323c5.808-5.794 9.401-13.805 9.401-22.656s-3.593-16.862-9.401-22.655l-361.409-361.345 361.408-361.344c5.798-5.798 9.384-13.808 9.384-22.656 0-17.695-14.345-32.040-32.040-32.040-8.848 0-16.858 3.586-22.656 9.384v0l-384 384c-5.808 5.794-9.401 13.805-9.401 22.656s3.593 16.862 9.401 22.655l384.001 384.001c5.794 5.808 13.805 9.401 22.656 9.401s16.862-3.593 22.655-9.401l0.001-0.001z" />
<glyph unicode="&#xe93d;" glyph-name="chevron-right" d="M297.344 833.323c5.794 5.808 13.805 9.401 22.656 9.401s16.862-3.593 22.655-9.401l384.001-384.001c5.808-5.794 9.401-13.805 9.401-22.656s-3.593-16.862-9.401-22.655l-384.001-384.001c-5.798-5.798-13.808-9.384-22.656-9.384-17.695 0-32.040 14.345-32.040 32.040 0 8.848 3.586 16.858 9.384 22.656v0l361.408 361.344-361.408 361.344c-5.808 5.794-9.401 13.805-9.401 22.656s3.593 16.862 9.401 22.655l0.001 0.001z" />
<glyph unicode="&#xe93e;" glyph-name="chevron-up" d="M489.344 641.323c5.794 5.808 13.805 9.401 22.656 9.401s16.862-3.593 22.655-9.401l384.001-384.001c5.798-5.798 9.384-13.808 9.384-22.656 0-17.695-14.345-32.040-32.040-32.040-8.848 0-16.858 3.586-22.656 9.384v0l-361.344 361.408-361.344-361.408c-5.798-5.798-13.808-9.384-22.656-9.384-17.695 0-32.040 14.345-32.040 32.040 0 8.848 3.586 16.858 9.384 22.656v0z" />
<glyph unicode="&#xe93f;" glyph-name="caret-down-fill" d="M463.808 225.707l-306.944 350.848c-36.224 41.28-6.784 106.112 48.192 106.112h613.888c0.016 0 0.036 0 0.055 0 35.346 0 64-28.654 64-64 0-16.19-6.012-30.976-15.924-42.247l0.062 0.071-306.944-350.72c-11.793-13.445-29.007-21.887-48.192-21.887s-36.399 8.442-48.129 21.814l-0.063 0.073z" />
<glyph unicode="&#xe940;" glyph-name="caret-left-fill" d="M247.040 378.475l350.848-306.944c41.344-36.224 106.112-6.784 106.112 48.192v613.888c0 0.016 0 0.036 0 0.055 0 35.346-28.654 64-64 64-16.19 0-30.976-6.012-42.247-15.924l0.071 0.062-350.72-306.944c-13.445-11.793-21.887-29.007-21.887-48.192s8.442-36.399 21.814-48.129l0.073-0.063z" />
<glyph unicode="&#xe941;" glyph-name="caret-up-fill" d="M463.808 627.627l-306.944-350.784c-36.224-41.408-6.784-106.176 48.192-106.176h613.888c0.016 0 0.036 0 0.055 0 35.346 0 64 28.654 64 64 0 16.19-6.012 30.976-15.924 42.247l0.062-0.071-306.944 350.72c-11.793 13.445-29.007 21.887-48.192 21.887s-36.399-8.442-48.129-21.814l-0.063-0.073z" />
<glyph unicode="&#xe942;" glyph-name="caret-right-fill" d="M776.96 378.475l-350.848-306.944c-41.344-36.224-106.112-6.784-106.112 48.192v613.888c0 0.016 0 0.036 0 0.055 0 35.346 28.654 64 64 64 16.19 0 30.976-6.012 42.247-15.924l-0.071 0.062 350.72-306.944c13.445-11.793 21.887-29.007 21.887-48.192s-8.442-36.399-21.814-48.129l-0.073-0.063z" />
<glyph unicode="&#xe943;" glyph-name="caret-left" d="M640 119.723v613.888l-350.784-306.944zM597.824 71.531l-350.72 306.944c-13.445 11.793-21.887 29.007-21.887 48.192s8.442 36.399 21.814 48.129l0.073 0.063 350.72 306.944c11.2 9.851 25.986 15.863 42.176 15.863 35.346 0 64-28.654 64-64 0-0.019 0-0.039 0-0.058v0.003-613.888c0-0.016 0-0.036 0-0.055 0-35.346-28.654-64-64-64-16.19 0-30.976 6.012-42.247 15.924l0.071-0.062z" />
<glyph unicode="&#xe944;" glyph-name="caret-down" d="M205.056 618.667h613.888l-306.944-350.784zM156.864 576.491l306.944-350.72c11.793-13.445 29.007-21.887 48.192-21.887s36.399 8.442 48.129 21.814l0.063 0.073 306.944 350.72c36.224 41.408 6.784 106.176-48.192 106.176h-613.888c-0.016 0-0.036 0-0.055 0-35.346 0-64-28.654-64-64 0-16.19 6.012-30.976 15.924-42.247l-0.062 0.071z" />
<glyph unicode="&#xe945;" glyph-name="caret-right" d="M384 119.723v613.888l350.784-306.944zM426.176 71.531l350.72 306.944c13.445 11.793 21.887 29.007 21.887 48.192s-8.442 36.399-21.814 48.129l-0.073 0.063-350.656 306.944c-41.536 36.224-106.24 6.784-106.24-48.192v-613.888c0-0.016 0-0.036 0-0.055 0-35.346 28.654-64 64-64 16.19 0 30.976 6.012 42.247 15.924l-0.071-0.062z" />
<glyph unicode="&#xe946;" glyph-name="caret-up" d="M205.056 234.667h613.888l-306.944 350.784zM156.864 276.843l306.944 350.72c11.793 13.445 29.007 21.887 48.192 21.887s36.399-8.442 48.129-21.814l0.063-0.073 306.944-350.72c36.224-41.408 6.784-106.176-48.192-106.176h-613.888c-0.016 0-0.036 0-0.055 0-35.346 0-64 28.654-64 64 0 16.19 6.012 30.976 15.924 42.247l-0.062-0.071z" />
<glyph unicode="&#xe947;" glyph-name="arrow-up" d="M512-21.333c17.673 0 32 14.327 32 32v0 754.752l201.344-201.408c5.798-5.798 13.808-9.384 22.656-9.384 17.695 0 32.040 14.345 32.040 32.040 0 8.848-3.586 16.858-9.384 22.656v0l-256 256c-5.794 5.808-13.805 9.401-22.656 9.401s-16.862-3.593-22.655-9.401l-256.001-256.001c-5.798-5.798-9.384-13.808-9.384-22.656 0-17.695 14.345-32.040 32.040-32.040 8.848 0 16.858 3.586 22.656 9.384v0l201.344 201.408v-754.752c0-17.673 14.327-32 32-32v0z" />
<glyph unicode="&#xe948;" glyph-name="arrow-right" d="M64 426.667c0 17.673 14.327 32 32 32v0h754.752l-201.408 201.344c-5.798 5.798-9.384 13.808-9.384 22.656 0 17.695 14.345 32.040 32.040 32.040 8.848 0 16.858-3.586 22.656-9.384v0l256-256c5.808-5.794 9.401-13.805 9.401-22.656s-3.593-16.862-9.401-22.655l-256.001-256.001c-5.798-5.798-13.808-9.384-22.656-9.384-17.695 0-32.040 14.345-32.040 32.040 0 8.848 3.586 16.858 9.384 22.656v0l201.408 201.344h-754.752c-17.673 0-32 14.327-32 32v0z" />
<glyph unicode="&#xe949;" glyph-name="arrow-left" d="M960 426.667c0 17.673-14.327 32-32 32v0h-754.752l201.408 201.344c5.798 5.798 9.384 13.808 9.384 22.656 0 17.695-14.345 32.040-32.040 32.040-8.848 0-16.858-3.586-22.656-9.384v0l-256-256c-5.808-5.794-9.401-13.805-9.401-22.656s3.593-16.862 9.401-22.655l256.001-256.001c5.798-5.798 13.808-9.384 22.656-9.384 17.695 0 32.040 14.345 32.040 32.040 0 8.848-3.586 16.858-9.384 22.656v0l-201.408 201.344h754.752c17.673 0 32 14.327 32 32v0z" />
<glyph unicode="&#xe94a;" glyph-name="arrow-down" d="M512 874.667c17.673 0 32-14.327 32-32v0-754.752l201.344 201.408c5.798 5.798 13.808 9.384 22.656 9.384 17.695 0 32.040-14.345 32.040-32.040 0-8.848-3.586-16.858-9.384-22.656v0l-256-256c-5.794-5.808-13.805-9.401-22.656-9.401s-16.862 3.593-22.655 9.401l-256.001 256.001c-5.798 5.798-9.384 13.808-9.384 22.656 0 17.695 14.345 32.040 32.040 32.040 8.848 0 16.858-3.586 22.656-9.384v0l201.344-201.408v754.752c0 17.673 14.327 32 32 32v0z" />
<glyph unicode="&#xe94b;" glyph-name="folder" d="M34.56 690.987l-2.56 55.68c0 70.692 57.308 128 128 128v0h235.008c35.343-0.008 67.337-14.339 90.496-37.504l52.992-52.992c23.158-23.165 55.153-37.496 90.494-37.504h254.85c0.004 0 0.009 0 0.013 0 70.692 0 128-57.308 128-128 0-4.078-0.191-8.112-0.564-12.093l0.039 0.509-40.768-448c-6.13-65.513-60.831-116.389-127.421-116.416h-662.275c-66.593 0.027-121.294 50.903-127.385 115.907l-0.039 0.509-40.768 448c-0.329 3.445-0.517 7.448-0.517 11.495 0 27.033 8.38 52.108 22.684 72.77l-0.279-0.425zM140.16 682.667c-0.001 0-0.002 0-0.004 0-35.346 0-64-28.654-64-64 0-2.028 0.094-4.034 0.279-6.014l-0.019 0.254 40.768-448c3.048-32.759 30.387-58.208 63.677-58.24h662.275c33.293 0.032 60.632 25.481 63.661 57.987l0.019 0.253 40.768 448c0.165 1.726 0.26 3.732 0.26 5.76 0 35.346-28.654 64-64 64-0.001 0-0.003 0-0.004 0v0zM440.32 791.915c-11.582 11.586-27.585 18.752-45.262 18.752-0.018 0-0.035 0-0.053 0h-235.005c-0.003 0-0.008 0-0.012 0-34.919 0-63.306-27.965-63.987-62.72l-0.001-0.064 0.384-8.896q20.672 7.616 43.776 7.68h345.344z" />
<glyph unicode="&#xe94c;" glyph-name="chat" d="M171.392 177.451c11.53-11.573 18.659-27.538 18.659-45.168 0-2.146-0.106-4.268-0.312-6.36l0.021 0.265c-5.059-47.778-14.030-91.208-26.781-132.988l1.309 4.988c89.28 20.672 143.808 44.608 168.576 57.152 8.415 4.353 18.368 6.906 28.917 6.906 5.876 0 11.567-0.792 16.972-2.275l-0.449 0.105c39.706-11.056 85.301-17.41 132.38-17.41 0.463 0 0.925 0.001 1.388 0.002h-0.072c255.744 0 448 179.648 448 384s-192.256 384-448 384-448-179.712-448-384c0-93.952 39.488-181.12 107.392-249.216zM139.84-72.469c-6.323-1.592-21.794-4.474-37.352-7.1l-8.28-1.156c-12.8-2.048-22.528 11.264-17.472 23.168 4.124 9.101 9.408 22.587 14.239 36.286l1.377 4.482 0.192 0.64c15.872 46.080 28.8 99.072 33.536 148.416-78.528 78.72-126.080 181.76-126.080 294.4 0 247.424 229.248 448 512 448s512-200.576 512-448-229.248-448-512-448c-0.381-0.001-0.831-0.001-1.282-0.001-52.963 0-104.257 7.148-152.969 20.533l4.043-0.947c-33.28-16.832-104.896-47.488-221.952-70.72z" />
<glyph unicode="&#xe94d;" glyph-name="chat-fill" d="M512-21.333c282.752 0 512 200.576 512 448s-229.248 448-512 448-512-200.576-512-448c0-112.64 47.552-215.68 126.080-294.4-6.208-65.024-26.688-136.32-49.344-189.824-5.056-11.904 4.736-25.216 17.472-23.168 144.384 23.68 230.208 60.032 267.52 78.976 44.669-12.437 95.963-19.586 148.926-19.586 0.473 0 0.946 0.001 1.419 0.002h-0.074z" />
<glyph unicode="&#xe94e;" glyph-name="chat-dots" d="M320 426.667c0-35.346-28.654-64-64-64s-64 28.654-64 64v0c0 35.346 28.654 64 64 64s64-28.654 64-64v0zM576 426.667c0-35.346-28.654-64-64-64s-64 28.654-64 64v0c0 35.346 28.654 64 64 64s64-28.654 64-64v0zM768 362.667c35.346 0 64 28.654 64 64s-28.654 64-64 64v0c-35.346 0-64-28.654-64-64s28.654-64 64-64v0zM138.56-72.725l1.28 0.256c117.12 23.232 188.672 53.888 221.952 70.72 44.669-12.437 95.962-19.585 148.926-19.585 0.451 0 0.902 0.001 1.353 0.002h-0.070c282.752 0 512 200.576 512 448s-229.248 448-512 448-512-200.576-512-448c0-112.64 47.552-215.68 126.080-294.4-6.080-55.056-17.888-105.287-34.989-152.997l1.453 4.645-0.192-0.704c-6.4-18.599-11.683-32.084-17.362-45.358l1.746 4.59c-5.056-11.904 4.736-25.216 17.472-23.168 23.398 3.706 38.436 6.499 53.389 9.529l-9.037-1.529zM189.76 126.187c0.185 1.827 0.291 3.949 0.291 6.096 0 17.63-7.129 33.595-18.661 45.17l0.002-0.002c-67.84 68.096-107.392 155.264-107.392 249.216 0 204.288 192.256 384 448 384s448-179.712 448-384-192.256-384-448-384c-0.372-0.001-0.812-0.002-1.253-0.002-47.079 0-92.673 6.354-135.973 18.251l3.594-0.842c-4.968 1.385-10.673 2.181-16.564 2.181-10.558 0-20.519-2.557-29.298-7.085l0.358 0.168c-24.768-12.544-79.36-36.48-168.576-57.152 11.443 36.793 20.413 80.223 25.203 124.904l0.269 3.096z" />
<glyph unicode="&#xe94f;" glyph-name="chat-dots-fill" d="M1024 426.667c0-247.424-229.248-448-512-448-0.381-0.001-0.831-0.001-1.282-0.001-52.963 0-104.257 7.148-152.969 20.533l4.043-0.947c-37.376-18.944-123.2-55.296-267.584-78.976-12.8-2.048-22.528 11.264-17.472 23.168 22.656 53.504 43.136 124.8 49.28 189.824-78.4 78.72-126.016 181.76-126.016 294.4 0 247.424 229.248 448 512 448s512-200.576 512-448zM320 426.667c0 35.346-28.654 64-64 64s-64-28.654-64-64v0c0-35.346 28.654-64 64-64s64 28.654 64 64v0zM576 426.667c0 35.346-28.654 64-64 64s-64-28.654-64-64v0c0-35.346 28.654-64 64-64s64 28.654 64 64v0zM768 362.667c35.346 0 64 28.654 64 64s-28.654 64-64 64v0c-35.346 0-64-28.654-64-64s28.654-64 64-64v0z" />
<glyph unicode="&#xe950;" glyph-name="chat-text" d="M171.392 177.451c11.53-11.573 18.659-27.538 18.659-45.168 0-2.146-0.106-4.268-0.312-6.36l0.021 0.265c-5.059-47.778-14.030-91.208-26.781-132.988l1.309 4.988c89.28 20.672 143.808 44.608 168.576 57.152 8.415 4.353 18.368 6.906 28.917 6.906 5.876 0 11.567-0.792 16.972-2.275l-0.449 0.105c39.706-11.056 85.301-17.41 132.38-17.41 0.463 0 0.925 0.001 1.388 0.002h-0.072c255.744 0 448 179.648 448 384s-192.256 384-448 384-448-179.712-448-384c0-93.952 39.488-181.12 107.392-249.216zM139.84-72.469c-6.323-1.592-21.794-4.474-37.352-7.1l-8.28-1.156c-12.8-2.048-22.528 11.264-17.472 23.168 4.124 9.101 9.408 22.587 14.239 36.286l1.377 4.482 0.192 0.64c15.872 46.080 28.8 99.072 33.536 148.416-78.528 78.72-126.080 181.76-126.080 294.4 0 247.424 229.248 448 512 448s512-200.576 512-448-229.248-448-512-448c-0.381-0.001-0.831-0.001-1.282-0.001-52.963 0-104.257 7.148-152.969 20.533l4.043-0.947c-33.28-16.832-104.896-47.488-221.952-70.72zM256 586.667c0 17.673 14.327 32 32 32v0h448c17.673 0 32-14.327 32-32s-14.327-32-32-32v0h-448c-17.673 0-32 14.327-32 32v0zM256 426.667c0 17.673 14.327 32 32 32v0h448c17.673 0 32-14.327 32-32s-14.327-32-32-32v0h-448c-17.673 0-32 14.327-32 32v0zM256 266.667c0 17.673 14.327 32 32 32v0h256c17.673 0 32-14.327 32-32s-14.327-32-32-32v0h-256c-17.673 0-32 14.327-32 32v0z" />
<glyph unicode="&#xe951;" glyph-name="chat-text-fill" d="M1024 426.667c0-247.424-229.248-448-512-448-0.381-0.001-0.831-0.001-1.282-0.001-52.963 0-104.257 7.148-152.969 20.533l4.043-0.947c-37.376-18.944-123.2-55.296-267.584-78.976-12.8-2.048-22.528 11.264-17.472 23.168 22.656 53.504 43.136 124.8 49.28 189.824-78.4 78.72-126.016 181.76-126.016 294.4 0 247.424 229.248 448 512 448s512-200.576 512-448zM288 618.667c-17.673 0-32-14.327-32-32s14.327-32 32-32v0h448c17.673 0 32 14.327 32 32s-14.327 32-32 32v0zM288 458.667c-17.673 0-32-14.327-32-32s14.327-32 32-32v0h448c17.673 0 32 14.327 32 32s-14.327 32-32 32v0zM288 298.667c-17.673 0-32-14.327-32-32s14.327-32 32-32v0h256c17.673 0 32 14.327 32 32s-14.327 32-32 32v0z" />
<glyph unicode="&#xe952;" glyph-name="person-circle" d="M704 554.667c0-106.039-85.961-192-192-192s-192 85.961-192 192v0c0 106.039 85.961 192 192 192s192-85.961 192-192v0zM0 426.667c0 282.77 229.23 512 512 512s512-229.23 512-512v0c0-282.77-229.23-512-512-512s-512 229.23-512 512v0zM512 874.667c-247.414-0.014-447.976-200.585-447.976-448 0-106.199 36.952-203.768 98.7-280.549l-0.676 0.869c45.44 73.216 145.472 151.68 349.952 151.68s304.448-78.4 349.952-151.68c61.072 75.912 98.024 173.481 98.024 279.68 0 247.415-200.563 447.986-447.974 448h-0.002z" />
<glyph unicode="&#xe953;" glyph-name="person-fill" d="M192 42.667s-64 0-64 64 64 256 384 256 384-192 384-256-64-64-64-64zM512 426.667c106.039 0 192 85.961 192 192s-85.961 192-192 192v0c-106.039 0-192-85.961-192-192s85.961-192 192-192v0z" />
<glyph unicode="&#xe954;" glyph-name="person" d="M512 426.667c106.039 0 192 85.961 192 192s-85.961 192-192 192v0c-106.039 0-192-85.961-192-192s85.961-192 192-192v0zM640 618.667c0-70.692-57.308-128-128-128s-128 57.308-128 128v0c0 70.692 57.308 128 128 128s128-57.308 128-128v0zM896 106.667c0-64-64-64-64-64h-640s-64 0-64 64 64 256 384 256 384-192 384-256zM832 106.923c-0.064 15.744-9.856 63.104-53.248 106.496-41.728 41.728-120.256 85.248-266.752 85.248s-225.024-43.52-266.752-85.248c-43.392-43.392-53.12-90.752-53.248-106.496z" />
<glyph unicode="&#xe955;" glyph-name="person-vcard" d="M320 426.667c70.692 0 128 57.308 128 128s-57.308 128-128 128v0c-70.692 0-128-57.308-128-128s57.308-128 128-128v0zM576 586.667c0 17.673 14.327 32 32 32v0h256c17.673 0 32-14.327 32-32s-14.327-32-32-32v0h-256c-17.673 0-32 14.327-32 32v0zM576 426.667c0 17.673 14.327 32 32 32v0h256c17.673 0 32-14.327 32-32s-14.327-32-32-32v0h-256c-17.673 0-32 14.327-32 32v0zM640 266.667c0 17.673 14.327 32 32 32v0h192c17.673 0 32-14.327 32-32s-14.327-32-32-32v0h-192c-17.673 0-32 14.327-32 32v0zM128 810.667c-70.692 0-128-57.308-128-128v0-512c0-70.692 57.308-128 128-128v0h768c70.692 0 128 57.308 128 128v0 512c0 70.692-57.308 128-128 128v0zM64 682.667c0 35.346 28.654 64 64 64v0h768c35.346 0 64-28.654 64-64v0-512c0-35.346-28.654-64-64-64v0h-322.56q2.56 15.68 2.56 32c0 123.712-114.56 224-256 224-133.504 0-243.2-89.472-254.976-203.584-0.652 3.429-1.024 7.373-1.024 11.404 0 0.063 0 0.126 0 0.19v-0.010z" />
<glyph unicode="&#xe956;" glyph-name="person-vcard-fill" d="M0 682.667c0 70.692 57.308 128 128 128v0h768c70.692 0 128-57.308 128-128v0-512c0-70.692-57.308-128-128-128v0h-768c-70.692 0-128 57.308-128 128v0zM576 586.667c0-17.673 14.327-32 32-32v0h256c17.673 0 32 14.327 32 32s-14.327 32-32 32v0h-256c-17.673 0-32-14.327-32-32v0zM576 426.667c0-17.673 14.327-32 32-32v0h256c17.673 0 32 14.327 32 32s-14.327 32-32 32v0h-256c-17.673 0-32-14.327-32-32v0zM640 266.667c0-17.673 14.327-32 32-32v0h192c17.673 0 32 14.327 32 32s-14.327 32-32 32v0h-192c-17.673 0-32-14.327-32-32v0zM576 138.667c0 123.712-114.56 224-256 224-133.504 0-243.2-89.472-254.976-203.584 5.673-30.018 31.692-52.416 62.943-52.416 0.012 0 0.023 0 0.035 0h445.438q2.56 15.68 2.56 32zM448 554.667c0 70.692-57.308 128-128 128s-128-57.308-128-128v0c0-70.692 57.308-128 128-128s128 57.308 128 128v0z" />
<glyph unicode="&#xe957;" glyph-name="calendar" d="M224 938.667c17.673 0 32-14.327 32-32v0-32h512v32c0 17.673 14.327 32 32 32s32-14.327 32-32v0-32h64c70.692 0 128-57.308 128-128v0-704c0-70.692-57.308-128-128-128v0h-768c-70.692 0-128 57.308-128 128v0 704c0 70.692 57.308 128 128 128v0h64v32c0 17.673 14.327 32 32 32v0zM64 682.667v-640c0-35.346 28.654-64 64-64v0h768c35.346 0 64 28.654 64 64v0 640z" />
<glyph unicode="&#xe958;" glyph-name="calendar3" d="M896 938.667h-768c-70.692 0-128-57.308-128-128v0-768c0-70.692 57.308-128 128-128v0h768c70.692 0 128 57.308 128 128v0 768c0 70.692-57.308 128-128 128v0zM64 691.819c0 30.272 28.672 54.848 64 54.848h768c35.328 0 64-24.576 64-54.848v-658.304c0-30.272-28.672-54.848-64-54.848h-768c-35.328 0-64 24.576-64 54.848zM416 490.667c35.346 0 64 28.654 64 64s-28.654 64-64 64v0c-35.346 0-64-28.654-64-64s28.654-64 64-64v0zM608 490.667c35.346 0 64 28.654 64 64s-28.654 64-64 64v0c-35.346 0-64-28.654-64-64s28.654-64 64-64v0zM800 490.667c35.346 0 64 28.654 64 64s-28.654 64-64 64v0c-35.346 0-64-28.654-64-64s28.654-64 64-64v0zM224 298.667c35.346 0 64 28.654 64 64s-28.654 64-64 64v0c-35.346 0-64-28.654-64-64s28.654-64 64-64v0zM416 298.667c35.346 0 64 28.654 64 64s-28.654 64-64 64v0c-35.346 0-64-28.654-64-64s28.654-64 64-64v0zM608 298.667c35.346 0 64 28.654 64 64s-28.654 64-64 64v0c-35.346 0-64-28.654-64-64s28.654-64 64-64v0zM800 298.667c35.346 0 64 28.654 64 64s-28.654 64-64 64v0c-35.346 0-64-28.654-64-64s28.654-64 64-64v0zM224 106.667c35.346 0 64 28.654 64 64s-28.654 64-64 64v0c-35.346 0-64-28.654-64-64s28.654-64 64-64v0zM416 106.667c35.346 0 64 28.654 64 64s-28.654 64-64 64v0c-35.346 0-64-28.654-64-64s28.654-64 64-64v0zM608 106.667c35.346 0 64 28.654 64 64s-28.654 64-64 64v0c-35.346 0-64-28.654-64-64s28.654-64 64-64v0z" />
<glyph unicode="&#xe959;" glyph-name="calendar4" d="M224 938.667c17.673 0 32-14.327 32-32v0-32h512v32c0 17.673 14.327 32 32 32s32-14.327 32-32v0-32h64c70.692 0 128-57.308 128-128v0-704c0-70.692-57.308-128-128-128v0h-768c-70.692 0-128 57.308-128 128v0 704c0 70.692 57.308 128 128 128v0h64v32c0 17.673 14.327 32 32 32v0zM128 810.667c-35.346 0-64-28.654-64-64v0-64h896v64c0 35.346-28.654 64-64 64v0zM960 618.667h-896v-576c0-35.346 28.654-64 64-64v0h768c35.346 0 64 28.654 64 64v0z" />
<glyph unicode="&#xe95a;" glyph-name="calendar3-fill" d="M0 810.667c0 70.692 57.308 128 128 128v0h768c70.692 0 128-57.308 128-128v0zM0 746.667v-704c0-70.692 57.308-128 128-128v0h768c70.692 0 128 57.308 128 128v0 704z" />
<glyph unicode="&#xe95b;" glyph-name="geo-alt" d="M778.624 366.507c-33.536-67.968-78.976-135.68-125.44-196.48-46.861-60.567-93.080-114.17-141.915-165.25l0.731 0.77c-48.104 50.31-94.323 103.913-137.709 159.824l-3.475 4.656c-46.464 60.8-91.904 128.512-125.44 196.48-33.92 68.672-53.376 132.992-53.376 188.16 0 176.731 143.269 320 320 320s320-143.269 320-320v0c0-55.168-19.52-119.488-53.376-188.16zM512-85.333s384 363.904 384 640c0 212.077-171.923 384-384 384s-384-171.923-384-384v0c0-276.096 384-640 384-640zM512 426.667c-70.692 0-128 57.308-128 128s57.308 128 128 128v0c70.692 0 128-57.308 128-128s-57.308-128-128-128v0zM512 362.667c106.039 0 192 85.961 192 192s-85.961 192-192 192v0c-106.039 0-192-85.961-192-192s85.961-192 192-192v0z" />
<glyph unicode="&#xe95c;" glyph-name="geo-alt-fill" d="M512-85.333s384 363.904 384 640c0 212.077-171.923 384-384 384s-384-171.923-384-384v0c0-276.096 384-640 384-640zM512 362.667c-106.039 0-192 85.961-192 192s85.961 192 192 192v0c106.039 0 192-85.961 192-192s-85.961-192-192-192v0z" />
<glyph unicode="&#xe95d;" glyph-name="cursor" d="M901.248 799.019c5.786-5.79 9.364-13.787 9.364-22.619 0-4.718-1.021-9.197-2.854-13.229l0.082 0.201-362.048-814.592c-5.106-11.296-16.275-19.014-29.247-19.014-13.143 0-24.436 7.924-29.361 19.255l-0.080 0.207-130.624 305.024-305.088 130.688c-11.481 5.030-19.356 16.293-19.356 29.396 0 12.956 7.699 24.113 18.771 29.146l0.201 0.082 814.592 362.048c3.819 1.739 8.284 2.753 12.984 2.753 8.823 0 16.811-3.57 22.6-9.345l-0.001 0.001zM144 414.891l249.408-106.88c7.567-3.319 13.477-9.249 16.688-16.625l0.080-0.207 106.88-249.408 298.496 671.616z" />
<glyph unicode="&#xe95e;" glyph-name="cursor-fill" d="M901.248 799.019c5.786-5.79 9.364-13.787 9.364-22.619 0-4.718-1.021-9.197-2.854-13.229l0.082 0.201-362.048-814.592c-5.106-11.296-16.275-19.014-29.247-19.014-13.143 0-24.436 7.924-29.361 19.255l-0.080 0.207-130.624 305.024-305.088 130.688c-11.481 5.030-19.356 16.293-19.356 29.396 0 12.956 7.699 24.113 18.771 29.146l0.201 0.082 814.592 362.048c3.819 1.739 8.284 2.753 12.984 2.753 8.823 0 16.811-3.57 22.6-9.345l-0.001 0.001z" />
<glyph unicode="&#xe95f;" glyph-name="send-fill" d="M1021.696 894.763c1.45 3.521 2.292 7.608 2.292 11.892 0 17.673-14.327 32-32 32-4.284 0-8.371-0.842-12.105-2.369l0.214 0.077-960-383.936c-11.904-4.842-20.144-16.32-20.144-29.723 0-11.328 5.887-21.282 14.768-26.969l0.128-0.077 26.24-16.64 0.064-0.128 319.68-203.392 220.16-346.048c5.772-8.96 15.698-14.809 26.99-14.809 13.394 0 24.866 8.229 29.636 19.908l0.077 0.214zM904.384 773.803l-479.616-479.616-13.76 21.632c-2.563 3.995-5.861 7.293-9.729 9.78l-0.127 0.076-21.632 13.76 479.616 479.616 75.392 30.144z" />
<glyph unicode="&#xe960;" glyph-name="send" d="M1014.656 929.323c5.78-5.789 9.355-13.782 9.355-22.61 0-4.306-0.85-8.413-2.393-12.163l0.078 0.213-372.416-931.008c-7.276-17.828-24.479-30.162-44.563-30.162-16.944 0-31.837 8.779-40.379 22.037l-0.114 0.19-203.392 319.68-319.68 203.392c-13.482 8.651-22.288 23.563-22.288 40.533 0 20.107 12.364 37.327 29.903 44.472l0.321 0.116 931.008 372.288c3.537 1.465 7.644 2.315 11.95 2.315 8.828 0 16.821-3.575 22.61-9.355v0zM424.704 294.187l176.704-277.632 302.912 757.248zM859.072 819.051l-757.248-302.912 277.696-176.64z" />
<glyph unicode="&#xe961;" glyph-name="envelope" d="M0 682.667c0 70.692 57.308 128 128 128v0h768c70.692 0 128-57.308 128-128v0-512c0-70.692-57.308-128-128-128v0h-768c-70.692 0-128 57.308-128 128v0zM128 746.667c-35.346 0-64-28.654-64-64v0-13.888l448-268.8 448 268.8v13.888c0 35.346-28.654 64-64 64v0zM960 594.155l-301.312-180.8 301.312-185.408zM957.824 154.091l-360.96 222.144-84.864-50.88-84.864 50.88-360.96-222.080c7.537-27.561 32.354-47.484 61.823-47.488h768.001c0.002 0 0.005 0 0.008 0 29.451 0 54.256 19.893 61.711 46.975l0.105 0.449zM64 227.947l301.312 185.408-301.312 180.8z" />
<glyph unicode="&#xe962;" glyph-name="envelope-fill" d="M3.2 711.147c13.436 57.415 64.197 99.52 124.791 99.52 0.003 0 0.006 0 0.009 0h768c0.002 0 0.006 0 0.009 0 60.594 0 111.355-42.105 124.62-98.653l0.171-0.867-508.8-310.976zM0 638.059v-454.656l371.392 227.712zM432.704 373.547l-420.48-257.728c21.029-43.602 64.89-73.152 115.653-73.152 0.043 0 0.086 0 0.129 0h767.993c0.008 0 0.018 0 0.028 0 50.788 0 94.667 29.579 115.351 72.451l0.333 0.765-420.48 257.728-79.232-48.448zM652.608 411.051l371.392-227.648v454.656z" />
<glyph unicode="&#xe963;" glyph-name="telephone-fill" d="M120.64 905.963c20.204 20.175 48.1 32.651 78.91 32.651 35.708 0 67.502-16.758 87.946-42.839l0.184-0.243 114.88-147.584c21.056-27.072 28.48-62.336 20.16-95.616l-35.008-140.16c-0.81-3.14-1.275-6.745-1.275-10.458 0-11.978 4.839-22.826 12.669-30.695l157.246-157.246c7.869-7.836 18.722-12.68 30.706-12.68 3.732 0 7.354 0.47 10.811 1.353l-0.301-0.065 140.096 35.008c8.111 2.101 17.423 3.307 27.016 3.307 25.959 0 49.856-8.832 68.849-23.654l-0.249 0.187 147.584-114.816c53.056-41.28 57.92-119.68 10.432-167.104l-66.176-66.176c-47.36-47.36-118.144-68.16-184.128-44.928-175.631 62.789-325.586 159.389-448.606 282.846l-0.034 0.034c-123.485 123.038-220.083 272.971-280.273 440.277l-2.607 8.299c-23.168 65.92-2.368 136.768 44.992 184.128z" />
<glyph unicode="&#xe964;" glyph-name="telephone" d="M233.856 853.675c-8.014 10.24-20.375 16.76-34.258 16.76-11.992 0-22.848-4.865-30.701-12.728l-66.176-66.24c-30.912-30.976-42.304-74.816-28.8-113.28 59.36-165.517 150.428-306.846 266.732-422.892l0.020-0.020c116.066-116.324 257.395-207.392 415.062-264.278l7.85-2.474c38.464-13.504 82.304-2.112 113.28 28.8l66.176 66.176c7.864 7.854 12.728 18.71 12.728 30.702 0 13.883-6.52 26.244-16.665 34.186l-0.095 0.072-147.648 114.816c-7.277 5.671-16.551 9.093-26.623 9.093-3.728 0-7.346-0.469-10.799-1.35l0.301 0.065-140.16-35.008c-8.101-2.096-17.401-3.299-26.982-3.299-30.864 0-58.811 12.484-79.069 32.678l-157.181 157.245c-20.221 20.26-32.726 48.229-32.726 79.118 0 9.562 1.198 18.845 3.453 27.705l-0.167-0.775 35.072 140.16c0.816 3.152 1.285 6.77 1.285 10.497 0 10.072-3.422 19.345-9.166 26.72l0.073-0.097zM120.576 905.963c20.211 20.218 48.136 32.723 78.982 32.723 35.74 0 67.559-16.789 88.001-42.91l0.185-0.245 114.816-147.584c21.056-27.072 28.48-62.336 20.16-95.616l-35.008-140.16c-0.81-3.14-1.275-6.745-1.275-10.458 0-11.978 4.839-22.826 12.669-30.695l157.246-157.246c7.869-7.836 18.722-12.68 30.706-12.68 3.732 0 7.354 0.47 10.811 1.353l-0.301-0.065 140.096 35.008c8.111 2.101 17.423 3.307 27.016 3.307 25.959 0 49.856-8.832 68.849-23.654l-0.249 0.187 147.584-114.816c53.056-41.28 57.92-119.68 10.432-167.104l-66.176-66.176c-47.36-47.36-118.144-68.16-184.128-44.928-175.631 62.789-325.586 159.389-448.606 282.846l-0.034 0.034c-123.485 123.038-220.083 272.971-280.273 440.277l-2.607 8.299c-23.168 65.92-2.368 136.768 44.992 184.128z" />
<glyph unicode="&#xe965;" glyph-name="cloud-download" d="M281.984 852.779c61.35 53.134 141.864 85.603 229.955 85.888h0.061c172.16 0 315.072-128 330.624-293.056 101.888-14.4 181.376-99.712 181.376-204.416 0-114.944-95.872-206.528-212.032-206.528h-171.968c-17.673 0-32 14.327-32 32s14.327 32 32 32v0h172.032c82.624 0 147.968 64.768 147.968 142.528 0 77.824-65.28 142.592-148.032 142.592h-32v32c0.064 142.080-118.976 258.88-267.968 258.88-72.146-0.297-138.022-26.901-188.587-70.708l0.363 0.308c-48.448-41.728-73.792-92.032-73.792-131.52v-28.672l-28.48-3.136c-89.408-9.792-157.504-83.2-157.504-170.624 0-93.888 78.72-171.648 177.984-171.648h142.016c17.673 0 32-14.327 32-32s-14.327-32-32-32v0h-142.016c-132.672 0-241.984 104.576-241.984 235.648 0 112.832 81.024 206.272 188.288 229.952 9.152 55.232 44.672 110.272 93.696 152.512zM489.344-75.989c5.794-5.808 13.805-9.401 22.656-9.401s16.862 3.593 22.655 9.401l192.001 192.001c5.798 5.798 9.384 13.808 9.384 22.656 0 17.695-14.345 32.040-32.040 32.040-8.848 0-16.858-3.586-22.656-9.384v0l-137.344-137.408v562.752c0 17.673-14.327 32-32 32s-32-14.327-32-32v0-562.752l-137.344 137.408c-5.798 5.798-13.808 9.384-22.656 9.384-17.695 0-32.040-14.345-32.040-32.040 0-8.848 3.586-16.858 9.384-22.656v0z" />
<glyph unicode="&#xe966;" glyph-name="arrow-up-short" d="M512 170.667c17.673 0 32 14.327 32 32v0 370.752l137.344-137.408c5.798-5.798 13.808-9.384 22.656-9.384 17.695 0 32.040 14.345 32.040 32.040 0 8.848-3.586 16.858-9.384 22.656v0l-192 192c-5.794 5.808-13.805 9.401-22.656 9.401s-16.862-3.593-22.655-9.401l-192.001-192.001c-5.798-5.798-9.384-13.808-9.384-22.656 0-17.695 14.345-32.040 32.040-32.040 8.848 0 16.858 3.586 22.656 9.384v0l137.344 137.408v-370.752c0-17.673 14.327-32 32-32v0z" />
<glyph unicode="&#xe967;" glyph-name="arrow-right-short" d="M256 426.667c0 17.673 14.327 32 32 32v0h370.752l-137.408 137.344c-5.798 5.798-9.384 13.808-9.384 22.656 0 17.695 14.345 32.040 32.040 32.040 8.848 0 16.858-3.586 22.656-9.384v0l192-192c5.808-5.794 9.401-13.805 9.401-22.656s-3.593-16.862-9.401-22.655l-192.001-192.001c-5.798-5.798-13.808-9.384-22.656-9.384-17.695 0-32.040 14.345-32.040 32.040 0 8.848 3.586 16.858 9.384 22.656v0l137.408 137.344h-370.752c-17.673 0-32 14.327-32 32v0z" />
<glyph unicode="&#xe968;" glyph-name="arrow-left-short" d="M768 426.667c0-17.673-14.327-32-32-32v0h-370.752l137.408-137.344c5.798-5.798 9.384-13.808 9.384-22.656 0-17.695-14.345-32.040-32.040-32.040-8.848 0-16.858 3.586-22.656 9.384v0l-192 192c-5.808 5.794-9.401 13.805-9.401 22.656s3.593 16.862 9.401 22.655l192.001 192.001c5.798 5.798 13.808 9.384 22.656 9.384 17.695 0 32.040-14.345 32.040-32.040 0-8.848-3.586-16.858-9.384-22.656v0l-137.408-137.344h370.752c17.673 0 32-14.327 32-32v0z" />
<glyph unicode="&#xe969;" glyph-name="arrow-down-short" d="M512 682.667c17.673 0 32-14.327 32-32v0-370.752l137.344 137.408c5.798 5.798 13.808 9.384 22.656 9.384 17.695 0 32.040-14.345 32.040-32.040 0-8.848-3.586-16.858-9.384-22.656v0l-192-192c-5.794-5.808-13.805-9.401-22.656-9.401s-16.862 3.593-22.655 9.401l-192.001 192.001c-5.798 5.798-9.384 13.808-9.384 22.656 0 17.695 14.345 32.040 32.040 32.040 8.848 0 16.858-3.586 22.656-9.384v0l137.344-137.408v370.752c0 17.673 14.327 32 32 32v0z" />
<glyph unicode="&#xe96a;" glyph-name="adobe" d="M622.080 810.667h316.587v-711.253l-316.587 711.253zM401.92 810.667h-316.587v-711.253l316.587 711.253zM512 547.414l199.253-448h-135.253l-56.747 142.507h-145.92z" />
<glyph unicode="&#xe96b;" glyph-name="adobe-indesign" d="M603.414 450.859c-48.318 0-73.568-43.427-73.568-97.363 0-58.101 28.753-94.521 72.841-94.521 30.802 0 55.258 21.019 61.67 51.094 1.983 7.734 2.776 15.335 2.776 24.523v44.815c0 5.684-0.793 13.286-1.388 19.036-6.345 28.621-29.414 52.416-62.331 52.416zM958.562 938.667h-893.125c-36.156 0-65.438-29.282-65.438-65.305v-893.191c0-36.156 29.348-65.438 65.372-65.438h893.125c36.222 0 65.372 29.348 65.372 65.438v893.191c0.066 36.090-29.083 65.305-65.305 65.305zM354.751 182.036h-107.080v471.944h107.080v-471.944zM681.94 182.036l-4.891 50.367h-1.52c-21.746-38.469-62.926-58.101-107.080-58.101-81.235 0-146.342 69.404-146.342 175.822-0.727 115.474 71.453 182.036 153.415 182.036 41.973 0 74.89-14.74 90.291-38.536h1.388v185.539h106.419v-394.873c0-38.602 1.388-79.186 2.842-102.321l-94.521 0.066z" />
<glyph unicode="&#xe96c;" glyph-name="adobe-photoshop" d="M347.312 646.632c-25.909 0-43.495-2.521-52.639-5.1v-166.534c10.903-2.462 24.209-3.283 42.615-3.283 67.821 0 109.675 34.292 109.675 92.089-0.059 51.818-36.050 82.827-99.651 82.827zM961.337 938.55h-898.616c-34.643 0-62.721-28.019-62.721-62.546v-898.557c0-34.585 28.078-62.663 62.721-62.663h898.616c34.585 0 62.663 28.078 62.663 62.663v898.499c0 34.585-28.078 62.604-62.663 62.604zM521.35 433.144c-43.436-41.033-107.975-59.439-183.182-59.439-16.823 0-31.83 0.821-43.553 2.521v-201.764h-126.439v556.638c39.333 6.624 94.551 11.665 172.455 11.665 78.607 0 134.763-15.006 172.337-45.195 36.167-28.488 60.377-75.383 60.377-130.601s-18.465-101.937-51.994-133.825zM711.917 166.139c-53.694 0-101.351 11.606-132.36 28.43l22.568 91.21c23.447-14.127 72.042-30.892 109.792-30.892 38.395 0 54.339 13.365 54.339 34.35 0 20.868-12.544 30.892-60.201 46.836-84.527 28.43-117.236 74.504-116.416 123.039 0 76.086 65.301 134.001 166.593 134.001 47.715 0 90.389-10.962 115.478-23.447l-22.568-87.927c-18.406 10.082-53.518 23.389-88.748 23.389-30.892 0-48.419-12.544-48.419-33.471 0-19.227 15.768-29.25 66.004-46.894 77.845-26.73 110.554-66.121 111.316-126.263 0-76.262-60.377-132.36-177.378-132.36z" />
<glyph unicode="&#xe96d;" glyph-name="adobe-illustrator" d="M415.585 588.33h-1.517c-7.708-31.016-15.417-70.407-23.975-100.573l-30.955-110.527h115.201l-32.472 110.527c-9.226 30.955-18.512 69.557-26.281 100.573zM961.24 938.667h-898.542c-34.657 0-62.699-28.041-62.699-62.699v-898.602c0-34.597 28.041-62.699 62.699-62.699h898.602c34.597 0 62.699 28.102 62.699 62.699v898.602c0 34.597-28.102 62.699-62.76 62.699zM531.574 155.387l-40.241 133.713h-149.13l-37.146-133.713h-122.12l159.266 520.953h154.532l161.633-520.953h-126.794zM837.178 155.387h-117.568v377.953h117.568v-377.953zM777.696 579.712c-37.085 0-61.849 26.342-61.121 58.814-0.728 34.050 24.036 59.421 61.97 59.421 37.814 0 61.788-25.432 62.517-59.421 0-32.472-24.703-58.814-63.366-58.814z" />
<glyph unicode="&#xe96e;" glyph-name="vuejs" horiz-adv-x="896" d="M713.8 810.067h-153.8l-112-177.2-96 177.2h-352l448-767.4 448 767.4h-182.2zM111.4 746.067h107.6l229-396.4 228.8 396.4h107.6l-336.4-576.4-336.6 576.4z" />
<glyph unicode="&#xe96f;" glyph-name="react" d="M836.4 584.267c-10.8 3.6-21.6 7-32.4 10.2 1.8 7.4 3.4 14.8 5 22.2 24.6 119.2 8.4 215-46.2 246.6-52.6 30.2-138.4-1.2-225.2-76.8-8.6-7.4-17-15.2-25-23-5.4 5.2-11 10.4-16.6 15.4-91 80.8-182.2 114.8-236.8 83-52.4-30.4-68-120.6-46-233.4 2.2-11.2 4.6-22.2 7.4-33.4-12.8-3.6-25.4-7.6-37.2-11.8-106.8-37-183.4-95.4-183.4-155.8 0-62.4 81.6-125 192.6-163 9-3 18-6 27.2-8.6-3-12-5.6-23.8-8-36-21-111-4.6-199 47.8-229.2 54-31.2 144.8 0.8 233.2 78.2 7 6.2 14 12.6 21 19.4 8.8-8.6 18-16.8 27.2-24.8 85.6-73.6 170.2-103.4 222.4-73.2 54 31.2 71.6 125.8 48.8 241-1.8 8.8-3.8 17.8-6 27 6.4 1.8 12.6 3.8 18.8 5.8 115.4 38.2 199 100 199 163.4 0 60.6-78.8 119.4-187.6 156.8zM565.8 754.067c74.4 64.8 143.8 90.2 175.4 72 33.8-19.4 46.8-97.8 25.6-200.8-1.4-6.8-2.8-13.4-4.6-20-44.4 10-89.4 17.2-134.6 21.2-26 37.2-54.4 72.8-85.2 106.2 7.8 7.4 15.4 14.4 23.4 21.4zM334.4 323.667c10.2-17.4 20.6-34.8 31.6-51.8-31.2 3.4-62.2 8.4-92.8 15 8.8 28.8 19.8 58.6 32.6 89 9.2-17.6 18.6-35 28.6-52.2zM273.8 564.267c28.8 6.4 59.4 11.6 91.2 15.6-10.6-16.6-21-33.6-30.8-50.8-9.8-17-19.4-34.4-28.4-52-12.6 29.8-23.2 59-32 87.2zM328.6 426.467c13.2 27.6 27.6 54.6 42.8 81.2s31.6 52.4 48.8 77.8c30 2.2 60.6 3.4 91.8 3.4s62-1.2 91.8-3.4c17-25.2 33.2-51 48.6-77.4s29.8-53.4 43.4-80.8c-13.4-27.6-27.8-54.8-43.2-81.6-15.2-26.6-31.4-52.4-48.4-78-29.8-2.2-60.8-3.2-92.2-3.2s-61.8 1-91.2 2.8c-17.4 25.4-33.8 51.4-49.2 78s-29.6 53.6-43 81.2zM689.8 324.067c10.2 17.6 19.8 35.4 29.2 53.4 12.8-29 24-58.4 33.8-88.6-31-7-62.4-12.4-94-16 10.8 16.8 21 34 31 51.2zM718.6 477.067c-9.4 17.6-19 35.2-29 52.4-9.8 17-20 33.8-30.6 50.4 32.2-4 63-9.4 91.8-16-9.2-29.6-20-58.4-32.2-86.8zM512.4 702.067c21-22.8 40.8-46.8 59.2-71.6-39.6 1.8-79.4 1.8-119 0 19.6 25.8 39.8 49.8 59.8 71.6zM280.4 824.667c33.6 19.6 108.2-8.4 186.8-78 5-4.4 10-9.2 15.2-14-31-33.4-59.6-69-85.8-106.2-45.2-4-90-11-134.4-20.8-2.6 10.2-4.8 20.6-7 31-18.8 96.8-6.4 169.8 25.2 188zM231.4 297.467c-8.4 2.4-16.6 5-24.8 7.8-42.6 13.4-91 34.6-126 62.4-20.2 14-33.8 35.6-37.6 59.8 0 36.6 63.2 83.4 154.4 115.2 11.4 4 23 7.6 34.6 11 13.6-43.4 30-86 49-127.2-19.2-41.8-35.8-85-49.6-129zM464.6 101.467c-33-30.2-71.2-54.2-112.8-70.6-22.2-10.6-47.8-11.6-70.6-2.6-31.8 18.4-45 89-27 184 2.2 11.2 4.6 22.4 7.4 33.4 44.8-9.6 90-16.2 135.8-19.6 26.4-37.4 55.4-73.2 86.4-106.8-6.4-6.2-12.8-12.2-19.2-17.8zM513.6 150.067c-20.4 22-40.8 46.4-60.6 72.6 19.2-0.8 39-1.2 59-1.2 20.6 0 40.8 0.4 60.8 1.4-18.4-25.4-38.2-49.6-59.2-72.8zM775 90.067c-1.8-24.4-13.8-47.2-33-62.6-31.8-18.4-99.6 5.6-172.8 68.4-8.4 7.2-16.8 15-25.4 23 30.6 33.8 58.8 69.6 84.4 107.2 45.8 3.8 91.4 10.8 136.4 21 2-8.2 3.8-16.4 5.4-24.4 9.8-43.2 11.4-88.2 5-132.6zM811.4 305.067c-5.6-1.8-11.2-3.6-17-5.2-14 43.6-31.2 86.2-51 127.6 19.2 40.8 35.4 82.8 49 125.8 10.4-3 20.4-6.2 30-9.4 93.2-32 158.6-79.6 158.6-116 0-39.2-69.8-89.8-169.6-122.8zM512 335.067c50.6 0 91.6 41 91.6 91.6s-41 91.6-91.6 91.6c-50.6 0-91.6-41-91.6-91.6s41-91.6 91.6-91.6z" />
<glyph unicode="&#xe970;" glyph-name="magento" horiz-adv-x="896" d="M891.4 682.867v-512.2l-126.8-73v511.6l-317 183.2-317.2-183.2 0.8-511.8-126.6 73.2v511.8l443.8 256.2 443-255.8zM511.2 97.667l-63.2-36.8-63.6 36.4v512l-126.6-73.2 0.2-511.8 189.8-109.8 190.2 109.8v512l-126.8 73.2v-511.8z" />
<glyph unicode="&#xe971;" glyph-name="angular" horiz-adv-x="896" d="M371.4 402.467h152.4l-76.2 183.2-76.2-183.2zM447.6 874.667l-415.6-148.8 63.6-551.4 352-195.8 352 195.8 63.6 551.4zM708 191.067h-97.2l-52.4 130.8h-221.2l-52.4-130.8h-97.4l260.2 584.6z" />
<glyph unicode="&#xe972;" glyph-name="shopify" horiz-adv-x="896" d="M776.6 730.467c-0.674 4.393-4.31 7.755-8.776 7.999l-0.024 0.001c-4 0-74.4 1.6-74.4 1.6s-43.2 41.6-59.2 57.6v-865.4l251.4 62.4s-108.2 731-109 735.8zM577.4 797.667c-4.385 13.731-9.264 25.378-15.013 36.504l0.613-1.304c-21 40-52.2 61.8-89 61.8-0.311 0.012-0.675 0.018-1.042 0.018-2.469 0-4.868-0.298-7.164-0.861l0.206 0.043c-0.8 1.6-2.4 2.4-3.2 4-16 17.6-36.8 25.6-61.6 24.8-48-1.6-96-36-134.6-97.6-27.2-43.2-48-97.6-53.6-140.2-55.2-16.8-93.6-28.8-94.4-29.6-28-8.8-28.8-9.6-32-36-2.4-20-76-583.6-76-583.6l605.2-105v876.6c-3.236-0.125-6.272-0.411-9.257-0.856l0.457 0.056s-11.2-3.2-29.6-8.8zM466.8 763.267c-32-9.6-67.2-20.8-101.6-31.2 9.6 37.6 28.8 75.2 51.2 100 8.8 8.8 20.8 19.2 34.4 25.6 13.6-28.8 16.8-68 16-94.4zM401.2 889.867c0.463 0.014 1.009 0.022 1.556 0.022 10.022 0 19.417-2.68 27.509-7.363l-0.265 0.141c-12.8-6.4-25.6-16.8-37.6-28.8-30.4-32.8-53.6-84-63.2-133-28.8-8.8-57.6-17.6-84-25.6 17.4 76.8 82.4 193 156 194.6zM308.4 449.467c3.2-51.2 138.6-62.4 146.6-183.4 5.6-95.2-50.4-160.2-131.4-165-97.6-6.4-151.4 51.2-151.4 51.2l20.8 88s53.6-40.8 96.8-37.6c28 1.6 38.4 24.8 37.6 40.8-4 67.2-114.4 63.2-121.6 173.8-6.4 92.8 54.4 186.6 189 195.4 52 3.2 78.4-9.6 78.4-9.6l-30.4-115.2s-34.4 16-75.2 12.8c-59.2-4-60-41.6-59.2-51.2zM498.8 772.867c0 24-3.2 58.4-14.4 87.2 36.8-7.2 54.4-48 62.4-72.8q-21.6-6-48-14.4z" />
<glyph unicode="&#xe973;" glyph-name="wordpress-simple" d="M512 922.667c-273.4 0-496-222.4-496-496 0-273.4 222.6-496 496-496s496 222.6 496 496c0 273.6-222.6 496-496 496zM66 426.667c0 64.6 13.8 126 38.6 181.4l212.8-582.8c-148.8 72.4-251.4 225-251.4 401.4zM512-19.333c-43.8 0-86 6.4-126 18.2l133.8 388.8 137-375.6c1-2.2 2-4.2 3.2-6.2-46.2-16.2-96-25.2-148-25.2zM573.4 635.667c26.8 1.4 51 4.2 51 4.2 24 2.8 21.2 38.2-2.8 36.8 0 0-72.2-5.6-118.8-5.6-43.8 0-117.4 5.6-117.4 5.6-24 1.4-26.8-35.4-2.8-36.8 0 0 22.8-2.8 46.8-4.2l69.4-190.4-97.6-292.6-162.4 483c26.8 1.4 51 4.2 51 4.2 24 2.8 21.2 38.2-2.8 36.8 0 0-72.2-5.6-118.8-5.6-8.4 0-18.2 0.2-28.8 0.6 79.8 121 216.8 201 372.6 201 116 0 221.8-44.4 301.2-117-2 0.2-3.8 0.4-5.8 0.4-43.8 0-74.8-38.2-74.8-79.2 0-36.8 21.2-67.8 43.8-104.6 17-29.6 36.8-67.8 36.8-123 0-38.2-14.6-82.4-34-144.2l-44.4-148.6-161.4 479.2zM736.2 41.267l136.2 393.8c25.4 63.6 34 114.4 34 159.8 0 16.4-1 31.6-3 45.8 34.8-63.6 54.6-136.4 54.6-214 0-164.6-89.2-308.2-221.8-385.4z" />
<glyph unicode="&#xe974;" glyph-name="wordpress" d="M123.4 599.867l203-556c-142 68.8-239.8 214.4-239.8 382.8 0 61.8 13.2 120.2 36.8 173.2zM799.2 448.067c0 52.6-18.8 89-35 117.4-21.6 35-41.8 64.8-41.8 99.8 0 39.2 29.6 75.6 71.4 75.6 1.8 0 3.6-0.2 5.6-0.4-75.8 69.4-176.6 111.8-287.4 111.8-148.6 0-279.4-76.2-355.6-191.8 10-0.4 19.4-0.6 27.4-0.6 44.4 0 113.4 5.4 113.4 5.4 23 1.4 25.6-32.4 2.8-35 0 0-23-2.6-48.6-4l155-460.8 93.2 279.2-66.2 181.6c-23 1.4-44.6 4-44.6 4-23 1.4-20.2 36.4 2.6 35 0 0 70.2-5.4 112-5.4 44.4 0 113.4 5.4 113.4 5.4 23 1.4 25.6-32.4 2.8-35 0 0-23-2.6-48.6-4l153.8-457.4 42.4 141.8c18 58.8 32 101 32 137.4zM519.4 389.467l-127.6-371c38.2-11.2 78.4-17.4 120.2-17.4 49.6 0 97 8.6 141.2 24.2-1.2 1.8-2.2 3.8-3 5.8l-130.8 358.4zM885.4 630.867c1.8-13.6 2.8-28 2.8-43.8 0-43.2-8-91.6-32.4-152.4l-130-375.8c126.6 73.8 211.6 210.8 211.6 367.8 0 74-18.8 143.6-52 204.2zM1008 426.667c0-273.6-222.6-496-496-496-273.6 0-496 222.6-496 496 0 273.6 222.4 496 496 496 273.4 0 496-222.4 496-496zM985.2 426.667c0 261-212.4 473.2-473.2 473.2-261 0-473.2-212.2-473.2-473.2s212.4-473.2 473.2-473.2c261 0 473.2 212.2 473.2 473.2z" />
<glyph unicode="&#xe975;" glyph-name="behance" horiz-adv-x="1152" d="M464 464.267c63.6 30.4 96.8 76.4 96.8 148 0 141.2-105.2 175.6-226.6 175.6h-334.2v-708.8h343.6c128.8 0 249.8 61.8 249.8 205.8 0 89-42.2 154.8-129.4 179.4zM155.8 666.867h146.2c56.2 0 106.8-15.8 106.8-81 0-60.2-39.4-84.4-95-84.4h-158v165.4zM322.4 199.467h-166.6v195.2h169.8c68.6 0 112-28.6 112-101.2 0-71.6-51.8-94-115.2-94zM1039.4 680.867h-287.4v69.8h287.4v-69.8zM1152 328.267c0 151.8-88.8 278.4-249.8 278.4-156.4 0-262.6-117.6-262.6-271.6 0-159.8 100.6-269.4 262.6-269.4 122.6 0 202 55.2 240.2 172.6h-124.4c-13.4-43.8-68.6-67-111.4-67-82.6 0-126 48.4-126 130.6h370.2c0.6 8.4 1.2 17.4 1.2 26.4zM780.8 390.667c4.6 67.4 49.4 109.6 117 109.6 70.8 0 106.4-41.6 112.4-109.6h-229.4z" />
<glyph unicode="&#xe976;" glyph-name="discord" horiz-adv-x="1280" d="M1049 799.067c-0.348 0.644-0.905 1.136-1.579 1.393l-0.021 0.007c-69.073 32.593-149.332 58.369-233.333 73.334l-5.867 0.866c-0.195 0.038-0.42 0.059-0.649 0.059-1.349 0-2.525-0.742-3.142-1.841l-0.009-0.018c-9.162-16.095-19.138-36.2-28.112-56.841l-1.688-4.359c-40.394 6.454-86.966 10.142-134.4 10.142s-94.006-3.688-139.446-10.791l5.046 0.65c-10.559 24.685-20.666 44.787-31.797 64.227l1.597-3.027c-0.677 1.11-1.881 1.839-3.255 1.839-0.192 0-0.381-0.014-0.566-0.042l0.021 0.003c-89.992-15.756-170.396-41.538-245.535-76.695l5.935 2.495c-0.678-0.292-1.227-0.777-1.591-1.385l-0.009-0.015c-152.4-227.8-194.2-449.8-173.8-669.2 0.124-1.152 0.721-2.145 1.589-2.792l0.011-0.008c83.908-62.671 181.45-113.178 286.691-146.323l6.909-1.877c0.336-0.108 0.722-0.17 1.123-0.17 1.261 0 2.378 0.614 3.069 1.559l0.007 0.011c20.962 28.209 40.889 60.161 58.172 93.698l1.828 3.902c0.245 0.488 0.388 1.063 0.388 1.672 0 1.59-0.976 2.952-2.362 3.519l-0.025 0.009c-35.801 13.821-66.029 28.541-94.823 45.44l3.023-1.64c-1.097 0.679-1.816 1.876-1.816 3.241 0 1.193 0.549 2.257 1.409 2.954l0.007 0.006c6.2 4.6 12.4 9.4 18.2 14.2 0.63 0.555 1.463 0.894 2.375 0.894 0.515 0 1.005-0.108 1.448-0.303l-0.023 0.009c192.4-87.8 400.8-87.8 591 0 0.461 0.231 1.005 0.366 1.581 0.366 0.841 0 1.614-0.288 2.227-0.771l-0.008 0.006c5.8-4.8 12-9.8 18.2-14.4 0.867-0.702 1.416-1.767 1.416-2.959 0-1.365-0.719-2.561-1.8-3.232l-0.016-0.009c-25.912-15.447-56.155-30.113-87.672-42.208l-4.128-1.392c-1.411-0.576-2.388-1.938-2.388-3.528 0-0.609 0.143-1.184 0.398-1.694l-0.010 0.022c19.621-37.629 39.529-69.56 61.558-99.848l-1.558 2.248c0.699-0.956 1.816-1.57 3.077-1.57 0.401 0 0.787 0.062 1.15 0.177l-0.027-0.007c112.455 34.863 210.285 85.39 296.97 150.032l-2.57-1.832c0.899 0.638 1.503 1.64 1.599 2.786l0.001 0.014c24.4 253.4-41.2 473.6-174 669zM445 263.467c-58 0-105.6 53.2-105.6 118.4s46.8 118.6 105.6 118.6c59.4 0 106.6-53.6 105.6-118.4 0-65.4-46.8-118.6-105.6-118.6zM835.8 263.467c-58 0-105.6 53.2-105.6 118.4s46.6 118.6 105.6 118.6c59.4 0 106.6-53.6 105.6-118.4 0-65.4-46.4-118.6-105.6-118.6z" />
<glyph unicode="&#xe977;" glyph-name="dribbble" d="M512 922.667c-273.4 0-496-222.6-496-496s222.6-496 496-496 496 222.6 496 496-222.6 496-496 496zM840 693.867c59-72 94.8-164 95.6-264-14 3-154 31.4-295 13.6-11.6 28-22.4 52.8-37.2 83.2 156.6 64 227.6 155 236.6 167zM792.8 742.867c-7.6-10.8-71.4-96.6-222-153-69.4 127.6-146.4 232.4-158 248 134.4 32.4 276-2.6 380.2-95zM331.8 809.467c11.2-15.4 86.8-120.2 157-245-198.2-52.6-372.8-51.8-391.6-51.6 27.6 131.4 116.2 240.6 234.6 296.6zM88.4 426.067c0 4.4 0 8.6 0.2 13 18.6-0.4 223.8-3 435.4 60.2 12.2-23.8 23.8-47.8 34.4-71.8-153.2-43.2-292.4-167-361-284.6-67.8 75-109 174.4-109 283.2zM252 91.867c44.2 90.4 164.4 207.2 335.2 265.6 59.4-154.6 84-284.2 90.4-321.2-136.2-58-300-42.2-425.6 55.8zM748.8 74.867c-4.4 25.8-26.8 149.8-82.4 302 132.8 21.2 249.4-13.6 263.8-18.2-18.8-117.8-86.6-219.6-181.6-284z" />
<glyph unicode="&#xe978;" glyph-name="dropbox" horiz-adv-x="1056" d="M528.8 706.067l-264-168.6 264-168.6-264-168.6-264.8 170.2 264.6 168.6-264.6 167 264.6 168.6 264.2-168.6zM263.2 147.267l264 168.6 264-168.6-264-168.6-264 168.6zM528.8 370.467l264 168.6-264 167.2 262.6 168.4 264.6-168.6-264.6-168.6 264.6-168.4-264.6-168.6-262.6 170z" />
<glyph unicode="&#xe979;" glyph-name="facebook" d="M1024 426.667c0 282.8-229.2 512-512 512s-512-229.2-512-512c0-240 165.4-441.6 388.4-497v340.6h-105.6v156.4h105.6v67.4c0 174.2 78.8 255 250 255 32.4 0 88.4-6.4 111.4-12.8v-141.6c-12 1.2-33 2-59.2 2-84 0-116.4-31.8-116.4-114.4v-55.6h167.2l-28.8-156.4h-138.6v-351.8c253.6 30.6 450 246.4 450 508.2v0z" />
<glyph unicode="&#xe97a;" glyph-name="facebook-f" horiz-adv-x="640" d="M160 340.067v-425.4h232v425.4h173l36 195.6h-209v69.2c0 103.4 40.6 143 145.4 143 32.6 0 58.8-0.8 74-2.4v177.4c-28.6 7.8-98.6 15.8-139 15.8-213.8 0-312.4-101-312.4-318.8v-84.2h-132v-195.6h132z" />
<glyph unicode="&#xe97b;" glyph-name="facebook-messenger" d="M513.2 922.667c-280.2 0-497.2-204.6-497.2-481.2 0-144.6 59.4-269.6 156.2-355.8 16.8-15 13.2-23.8 16.2-116.4 0.733-21.406 18.261-38.48 39.778-38.48 5.721 0 11.16 1.207 16.076 3.38l-0.254-0.1c105.8 46.6 107.2 50.2 125.2 45.4 306.6-84.4 638.8 111.8 638.8 462 0 276.6-214.8 481.2-494.8 481.2zM811.6 552.467l-146-231.2c-13.491-20.95-36.696-34.628-63.097-34.628-16.846 0-32.391 5.569-44.895 14.966l0.192-0.138-116.2 87c-4.951 3.746-11.212 6-18 6s-13.049-2.254-18.075-6.055l0.075 0.055-156.8-118.8c-21-15.8-48.4 9.2-34.2 31.4l146 231.2c13.491 20.95 36.696 34.628 63.097 34.628 16.846 0 32.391-5.569 44.895-14.966l-0.192 0.138 116.2-87c4.951-3.746 11.212-6 18-6s13.049 2.254 18.075 6.055l-0.075-0.055 156.8 118.8c20.8 16 48.2-9 34.2-31.2z" />
<glyph unicode="&#xe97c;" glyph-name="figma" horiz-adv-x="768" d="M28 747.067c0 105.8 85.8 191.6 191.6 191.6h328.8c105.8 0 191.6-85.8 191.6-191.6 0-67-34.4-126-86.6-160.2 52.2-34.2 86.6-93.2 86.6-160.2 0-105.8-85.8-191.6-191.6-191.6h-4.2c-49.6 0-94.8 18.8-128.8 49.8v-176.6c0-107.2-88-193.6-194.8-193.6-105.6 0-192.6 85.6-192.6 191.6 0 67 34.4 126 86.4 160.2-52 34.2-86.4 93.2-86.4 160.2s34.4 126 86.4 160.2c-52 34.2-86.4 93.2-86.4 160.2zM352.6 555.467h-133c-71.2 0-128.8-57.6-128.8-128.8 0-70.8 57.2-128.4 128-128.8 0.2 0 0.6 0 0.8 0h133v257.6zM415.4 426.667c0-71.2 57.6-128.8 128.8-128.8h4.2c71 0 128.8 57.6 128.8 128.8s-57.8 128.8-128.8 128.8h-4.2c-71.2 0-128.8-57.6-128.8-128.8zM219.6 235.067c-0.2 0-0.6 0-0.8 0-70.8-0.4-128-58-128-128.8 0-71 58.4-128.8 129.8-128.8 72.6 0 132 58.8 132 130.8v126.8h-133zM219.6 875.867c-71.2 0-128.8-57.6-128.8-128.8s57.6-128.8 128.8-128.8h133v257.6h-133zM415.4 618.267h133c71 0 128.8 57.6 128.8 128.8s-57.8 128.8-128.8 128.8h-133v-257.6z" />
<glyph unicode="&#xe97d;" glyph-name="github" horiz-adv-x="992" d="M331.8 143.867c0-4-4.6-7.2-10.4-7.2-6.6-0.6-11.2 2.6-11.2 7.2 0 4 4.6 7.2 10.4 7.2 6 0.6 11.2-2.6 11.2-7.2zM269.6 152.867c-1.4-4 2.6-8.6 8.6-9.8 5.2-2 11.2 0 12.4 4s-2.6 8.6-8.6 10.4c-5.2 1.4-11-0.6-12.4-4.6zM358 156.267c-5.8-1.4-9.8-5.2-9.2-9.8 0.6-4 5.8-6.6 11.8-5.2 5.8 1.4 9.8 5.2 9.2 9.2-0.6 3.8-6 6.4-11.8 5.8zM489.6 922.667c-277.4 0-489.6-210.6-489.6-488 0-221.8 139.6-411.6 339-478.4 25.6-4.6 34.6 11.2 34.6 24.2 0 12.4-0.6 80.8-0.6 122.8 0 0-140-30-169.4 59.6 0 0-22.8 58.2-55.6 73.2 0 0-45.8 31.4 3.2 30.8 0 0 49.8-4 77.2-51.6 43.8-77.2 117.2-55 145.8-41.8 4.6 32 17.6 54.2 32 67.4-111.8 12.4-224.6 28.6-224.6 221 0 55 15.2 82.6 47.2 117.8-5.2 13-22.2 66.6 5.2 135.8 41.8 13 138-54 138-54 40 11.2 83 17 125.6 17s85.6-5.8 125.6-17c0 0 96.2 67.2 138 54 27.4-69.4 10.4-122.8 5.2-135.8 32-35.4 51.6-63 51.6-117.8 0-193-117.8-208.4-229.6-221 18.4-15.8 34-45.8 34-92.8 0-67.4-0.6-150.8-0.6-167.2 0-13 9.2-28.8 34.6-24.2 200 66.4 335.6 256.2 335.6 478 0 277.4-225 488-502.4 488zM194.4 232.867c-2.6-2-2-6.6 1.4-10.4 3.2-3.2 7.8-4.6 10.4-2 2.6 2 2 6.6-1.4 10.4-3.2 3.2-7.8 4.6-10.4 2zM172.8 249.067c-1.4-2.6 0.6-5.8 4.6-7.8 3.2-2 7.2-1.4 8.6 1.4 1.4 2.6-0.6 5.8-4.6 7.8-4 1.2-7.2 0.6-8.6-1.4zM237.6 177.867c-3.2-2.6-2-8.6 2.6-12.4 4.6-4.6 10.4-5.2 13-2 2.6 2.6 1.4 8.6-2.6 12.4-4.4 4.6-10.4 5.2-13 2zM214.8 207.267c-3.2-2-3.2-7.2 0-11.8s8.6-6.6 11.2-4.6c3.2 2.6 3.2 7.8 0 12.4-2.8 4.6-8 6.6-11.2 4z" />
<glyph unicode="&#xe97e;" glyph-name="google" horiz-adv-x="976" d="M976 415.067c0-283-193.8-484.4-480-484.4-274.4 0-496 221.6-496 496s221.6 496 496 496c133.6 0 246-49 332.6-129.8l-135-129.8c-176.6 170.4-505 42.4-505-236.4 0-173 138.2-313.2 307.4-313.2 196.4 0 270 140.8 281.6 213.8h-281.6v170.6h472.2c4.6-25.4 7.8-49.8 7.8-82.8z" />
<glyph unicode="&#xe97f;" glyph-name="instagram" horiz-adv-x="896" d="M448.2 656.667c-127.2 0-229.8-102.6-229.8-229.8s102.6-229.8 229.8-229.8 229.8 102.6 229.8 229.8-102.6 229.8-229.8 229.8zM448.2 277.467c-82.2 0-149.4 67-149.4 149.4s67 149.4 149.4 149.4 149.4-67 149.4-149.4-67.2-149.4-149.4-149.4zM741 666.067c0-29.8-24-53.6-53.6-53.6-29.8 0-53.6 24-53.6 53.6s24 53.6 53.6 53.6 53.6-24 53.6-53.6zM893.2 611.667c-3.4 71.8-19.8 135.4-72.4 187.8-52.4 52.4-116 68.8-187.8 72.4-74 4.2-295.8 4.2-369.8 0-71.6-3.4-135.2-19.8-187.8-72.2s-68.8-116-72.4-187.8c-4.2-74-4.2-295.8 0-369.8 3.4-71.8 19.8-135.4 72.4-187.8s116-68.8 187.8-72.4c74-4.2 295.8-4.2 369.8 0 71.8 3.4 135.4 19.8 187.8 72.4 52.4 52.4 68.8 116 72.4 187.8 4.2 74 4.2 295.6 0 369.6zM797.6 162.667c-15.6-39.2-45.8-69.4-85.2-85.2-59-23.4-199-18-264.2-18s-205.4-5.2-264.2 18c-39.2 15.6-69.4 45.8-85.2 85.2-23.4 59-18 199-18 264.2s-5.2 205.4 18 264.2c15.6 39.2 45.8 69.4 85.2 85.2 59 23.4 199 18 264.2 18s205.4 5.2 264.2-18c39.2-15.6 69.4-45.8 85.2-85.2 23.4-59 18-199 18-264.2s5.4-205.4-18-264.2z" />
<glyph unicode="&#xe980;" glyph-name="linkedin" horiz-adv-x="896" d="M832 874.667h-768.2c-35.2 0-63.8-29-63.8-64.6v-766.8c0-35.6 28.6-64.6 63.8-64.6h768.2c35.2 0 64 29 64 64.6v766.8c0 35.6-28.8 64.6-64 64.6zM270.8 106.667h-132.8v427.6h133v-427.6zM204.4 592.667c-42.6 0-77 34.6-77 77s34.4 77 77 77c42.4 0 77-34.6 77-77 0-42.6-34.4-77-77-77zM768.6 106.667h-132.8v208c0 49.6-1 113.4-69 113.4-69.2 0-79.8-54-79.8-109.8v-211.6h-132.8v427.6h127.4v-58.4h1.8c17.8 33.6 61.2 69 125.8 69 134.4 0 159.4-88.6 159.4-203.8v-234.4z" />
<glyph unicode="&#xe981;" glyph-name="linkedin-in" horiz-adv-x="896" d="M200.6 42.667h-185.8v598.2h185.8zM107.6 722.467c-59.4 0-107.6 49.2-107.6 108.6 0 59.426 48.174 107.6 107.6 107.6s107.6-48.174 107.6-107.6v0c0-59.4-48.2-108.6-107.6-108.6zM895.8 42.667h-185.4v291.2c0 69.4-1.4 158.4-96.6 158.4-96.6 0-111.4-75.4-111.4-153.4v-296.2h-185.6v598.2h178.2v-81.6h2.6c24.8 47 85.4 96.6 175.8 96.6 188 0 222.6-123.8 222.6-284.6v-328.6z" />
<glyph unicode="&#xe982;" glyph-name="mastodon" horiz-adv-x="896" d="M866 580.467c0 194.4-127.4 251.4-127.4 251.4-125 57.4-457.2 56.8-581 0 0 0-127.4-57-127.4-251.4 0-231.4-13.2-518.8 211.2-578.2 81-21.4 150.6-26 206.6-22.8 101.6 5.6 158.6 36.2 158.6 36.2l-3.4 73.8s-72.6-22.8-154.2-20.2c-80.8 2.8-166 8.8-179.2 108-1.147 8.145-1.801 17.553-1.801 27.115 0 0.241 0 0.481 0.001 0.722v-0.037c171.2-41.8 317.4-18.2 357.6-13.4 112.2 13.4 210 82.6 222.4 145.8 19.6 99.6 18 243 18 243zM715.8 330.067h-93.2v228.4c0 99.4-128 103.2-128-13.8v-125h-92.6v125c0 117-128 113.2-128 13.8v-228.4h-93.6c0 244.2-10.4 295.8 36.8 350 51.8 57.8 159.6 61.6 207.6-12.2l23.2-39 23.2 39c48.2 74.2 156.2 69.6 207.6 12.2 47.4-54.6 36.8-106 36.8-350z" />
<glyph unicode="&#xe983;" glyph-name="medium" horiz-adv-x="1280" d="M361 790.067c-199.4 0-361-162.6-361-363.4s161.6-363.4 361-363.4 361 162.6 361 363.4-161.6 363.4-361 363.4zM937.6 768.867c-99.6 0-180.4-153.2-180.4-342.2s80.8-342.2 180.6-342.2 180.6 153.2 180.6 342.2h-0.4c0 189-80.8 342.2-180.4 342.2zM1216.6 733.267c-35 0-63.4-137.2-63.4-306.6s28.4-306.6 63.4-306.6 63.4 137.4 63.4 306.6c0 169.2-28.4 306.6-63.4 306.6z" />
</font>
</defs>
</svg>
